<?xml version="1.0" encoding="UTF-8"?>
<svg id="OBJECTS" xmlns="http://www.w3.org/2000/svg" viewBox="0 0 304.93 302.09">
  <defs>
    <style>
      .cls-1 {
        fill-rule: evenodd;
      }

      .cls-1, .cls-2 {
        stroke-width: 0px;
      }

      .cls-1, .cls-2, .cls-3, .cls-4 {
        fill: #fff;
      }

      .cls-5 {
        letter-spacing: -.1em;
      }

      .cls-3 {
        font-size: 10px;
      }

      .cls-3, .cls-4 {
        font-family: Sriracha-Regular, Sriracha;
      }

      .cls-4 {
        font-size: 30px;
      }
    </style>
  </defs>
  <g>
    <g>
      <path class="cls-1" d="M151.92,152.66c-4.09-.2-6.96-.31-9.85-.12-2.14.14-4.31-.1-6.42-.65-1.8-.47-3.6-.8-5.51-.8-1.68,0-3.38-.65-5.02-1.16-2.13-.66-4.17-1.54-6.18-2.51-1.67-.8-3.39-1.57-5.25-1.87-.14-.02-.31-.03-.41-.11-1.15-.85-2.43-1.59-3.38-2.62-.9-.99-1.5-2.3-1.71-3.68-.19-1.27-.22-2.55-.56-3.81-.29-1.09-.22-2.28-.27-3.43-.06-1.14-.28-2.29-.02-3.44.05-.21.04-.43.01-.65-.25-2.57-.52-5.15-.78-7.72-.13-1.36-.33-2.72-.34-4.08-.03-3.02.14-6.05.04-9.06-.05-1.56-.62-3.1-.78-4.67-.18-1.85-1.31-2.62-2.92-2.93-1.3-.25-2.51-.61-3.48-1.57-.2-.19-.48-.33-.74-.43-2.24-.88-4.1-2.39-6.06-3.72-2.23-1.51-3.86-3.44-4.14-6.25-.84-1.72-1.23-3.74-3.09-4.78-1.7-.96-2.59-2.66-3.82-4.05-.86-2.28-1.96-4.51-1.44-7.08.16-.77.29-1.56.34-2.34.06-.93.43-1.69,1.16-2.22.84-.62,1.39-1.39,1.75-2.38.29-.8.88-1.44,1.65-1.93.97-.62,1.86-1.35,2.74-2.08,1.42-1.17,2.3-2.75,3.21-4.31.51-.87,1.02-1.74,1.49-2.62.2-.37.32-.78.44-1.19.25-.87.65-1.68,1.51-2,1.66-.61,2.69-1.86,3.69-3.2.13-.17.26-.35.4-.51.84-.97,1.88-1.57,3.19-1.57,3.06,0,5.74-1.2,8.32-2.66.36-.2.85-.51.92-.85.16-.82.79-1.19,1.31-1.64,1.21-1.02,2.48-1.97,3.74-2.92.28-.21.6-.46.94-.52,1.61-.28,2.9-1.23,4.31-1.93.51-.25,1.05-.51,1.6-.6,2.77-.45,5.55-.95,8.37-.66,2.57.26,5.11.74,7.63,1.36.81.2,1.03.94,1.73,1.23,1.64.67,3.39.62,5.06,1.03,1.05.26,2.11.41,3.17.6.42.08.85.17,1.28.18,3.74.16,7.44.88,11.19.7.72-.03,1.45-.05,2.16.03,1.25.14,2.4-.03,3.56-.55,1.21-.54,2.53-.52,3.81-.15,2.42.7,4.72,1.65,6.65,3.34.2.17.49.28.75.33.92.15,1.85.24,2.77.38.7.1,1.41.06,1.93.75.2.26.78.35,1.18.33,2.24-.08,4.45.22,6.66.52.5.07,1.01.12,1.47.31,1.67.67,3.34,1.33,4.95,2.11.9.44,1.65,1.14,2.2,2.02.81,1.28,1.73,2.45,2.94,3.41.83.66,1.44,1.59,2.17,2.38,2.08,2.21,4.36,4.17,6.92,5.81,1.08.7,2.12,1.44,3.29,2.02,2.07,1.02,3.93,2.4,5.69,3.9.71.61,1.49,1.15,2.12,1.83,1.8,1.93,3.25,4.04,3.07,6.87-.02.29-.03.58,0,.86.31,3.77-.92,7.08-2.99,10.14-.4.6-.8,1.19-1.22,1.78-1.13,1.6-2.36,3.08-4.14,4.03-.5.27-.97.63-1.41,1-1.41,1.17-3.08,1.79-4.74,2.5-2.17.93-4.28,2.07-6.25,3.37-.97.64-1.58,1.83-2.34,2.78-.31.38-.51.87-.88,1.18-.81.67-1.02,1.5-1,2.49.03,1.44-.06,2.88,0,4.32.07,1.89-.14,3.74-.57,5.57-.33,1.41-.51,2.83-.5,4.28,0,1.94-.07,3.87-.5,5.8-.25,1.11-.21,2.29-.21,3.44-.02,2.45.08,4.9,0,7.34-.05,1.57-.22,3.16-.5,4.71-.26,1.41-1.1,2.42-2.52,2.97-1.12.44-2.24,1-3.21,1.71-2.18,1.61-4.62,2.62-7.19,3.36-.76.22-1.54.4-2.26.71-4.14,1.76-8.54,2.51-12.92,3.37-2.43.48-4.87.34-7.31.5-3.95.27-7.9.58-10.65.32ZM182.2,80.6c-.05.11-.1.23-.15.34.04-.12.08-.24.12-.37.05-.04.11-.07.15-.12.03-.03.02-.09.03-.14-.05.09-.1.19-.15.28ZM111.97,137.3c-.89.54-.92,1.32-.62,2.36.22-.89.41-1.64.6-2.38.07,0,.14,0,.2-.03.04-.02.07-.08.1-.12-.09.06-.18.12-.27.18ZM131.45,132.78c.68.49,1.43.24,2.16.05-.73,0-1.46-.02-2.19-.02-.91-.7-1.92-.41-2.92-.28.98.09,1.96.17,2.95.25ZM162.4,74.36c-.45.05-.83.23-.86.73-.04.6-.02,1.21-.03,1.81.06,0,.11,0,.16,0,.23-.86.47-1.72.7-2.58.21-.31.54-.6.15-1.25-.05.55-.09.91-.13,1.27ZM180.32,134.14c-.04-.05-.06-.12-.11-.16-.03-.03-.09-.02-.14-.03.09.05.19.11.28.16.15.14.29.34.47.41,1.79.67,3.6,1.3,5.51,1.57-1.48-.67-2.99-1.28-4.52-1.82-.45-.16-.99-.1-1.48-.14ZM134.54,135.83l-.04-.03c1.81.41,3.62.82,5.54,1.25-2.87-.06-5.65.45-8.37-.39-.2-.06-.43-.02-.64-.03-2.15-.94-2.48-.99-3.9-.43,1.41.44,2.68.29,3.92.4.21.25.43.5.68.78-.8.38-1.5.32-2.22.21-.66-.1-1.32-.5-2.04-.13.36.8,1.27.06,1.61.73-.31.13-.59.25-.96.41.88.49,1.92-.03,2.5.85-.17.55-.58.62-1.04.55-.71-.11-1.41-.32-2.12-.36-1.1-.05-2.15-.25-3.09-.83-.45-.27-.9-.37-1.43-.29-.34.05-.7-.05-1.07-.09-.17-.27-.33-.51-.48-.75-.72-1.13-2.45-1.95-3.76-1.91-1.94.07-2.94,1.32-3.67,2.86-.47,1,.18,3.15,1.08,3.93.14.12.39.11.62.16.21-.33.41-.62.68-1.04-.86-1.25-1.31-2.64-.69-4.17.85-.32,1.64-.62,2.31-.88,1.08,1.15,2.05,2.18,2.98,3.16,2.01.49,4.01.75,5.87,1.68-1.39,1.15-2.75,1.18-4.3.59-1.64-.62-3.16-1.33-4.32-2.7-.4-.48-.94-.84-1.54-1.36-.25.49-.47.91-.72,1.41.65.61.94,1.49,1.8,1.85,1.39.58,2.74,1.39,4.19,1.68,2.05.41,3.99,1.04,5.96,1.74,2.36.84,4.86,1.3,7.31,1.86,1.74.4,3.5.7,5.3,1.06-.42.7-1.06.66-1.58.62-1.22-.08-2.45-.17-3.63-.45-2.52-.6-5.01-1.32-7.5-1.99-.48-.13-.98-.26-1.43-.48-2.33-1.14-4.88-1.66-7.31-2.51-.17-.06-.44.18-1.09.49,1.75.85,2.9,1.94,4.49,2.3,1.12.25,2.24.54,3.35.84.21.06.4.2.77.39-1.67.61-3.04-.32-4.67-.19.82.73,1.69.85,2.49,1.11,2.11.68,4.39.71,6.42,1.72.18.09.42.06.64.09,1.36.16,2.73.24,4.07.5,4.11.79,8.25,1.1,12.44,1.15,3.67.04,7.33-.05,10.97-.47.07,0,.14-.01.21-.02.62-.09.99-.37.9-.68-.15-.56-.64-.49-1.05-.51-.57-.03-1.15-.03-1.73-.04-2.23-.04-4.46-.1-6.7-.11-1.82,0-3.56-.5-5.32-.87-.45-.09-.74-.43-.42-.94,1.68.45,3.38.66,5.1.68,1.37.01,2.74-.02,4.1-.05,3.89-.07,7.77.22,11.66-.16.64-.06,1.29.05,1.93.13.22.03.58,0,.52.62-2.04.51-4.27.31-6.56,1.04,1.09.56,2,.9,3.04.79,3.5-.36,7.02-.67,10.51-1.09,2.64-.32,5.22-.84,7.76-1.77,2.8-1.02,5.46-2.19,7.85-3.98,1.08-.81,1.13-.75,1.69-2.39-.57-.34-.99-.13-1.18.44-.34,1.02-1.04,1.49-2.07,1.62-.35.04-.68.24-1.03.28-.24.03-.49-.09-.69-.13-.09-.87,1.06-.94.82-1.86-.58.04-1.18.08-1.82.12-.08.93-.12,1.72-.22,2.49-.06.5-.34.78-.89.56-.05-.13-.13-.25-.13-.38-.02-.53.32-1.28-.47-1.43-.55-.11-.8.5-1.03.95-.07.13-.13.26-.21.38-.69,1.06-1.06,1.28-2.85,1.63.11-.79.86-.91,1.28-1.34.35-.35.79-.66.52-1.34-.64-.29-1.36-.2-2.07-.21-2.45-.05-4.9-.07-7.34-.13-.64-.02-1.29-.09-1.92-.23-.33-.07-.66-.32-.37-.75,3.89.04,7.76.09,11.64.12.28,0,.56-.08.83-.17.11-.04.27-.2.26-.31,0-.2-.06-.5-.19-.56-.38-.18-.8-.28-1.21-.38-.83-.21-1.68-.36-2.5-.61-1.1-.34-2.17-.75-3.26-1.13-.54-.19-1.1-.34-1.62-.58-.19-.09-.3-.36-.7-.89,2.28.55,4.15,1,6.01,1.46.96.24.96.24,2.16-.07-.41-.57-1.08-.66-1.65-.93-.57-.28-1.44-.2-1.66-1.2,1.18-.27,2.08.69,3.16.56-.31-1.09-.46-1.29-1.29-1.43-1.7-.29-3.41-.56-5.11-.81-.25-.04-.69.02-.76.17-.38.82-1.07.63-1.68.56-3.07-.36-6.14-.76-9.21-1.13-1.07-.13-2.18-.06-3.21-.34-1.43-.39-2.84-.39-4.28-.28-.49.04-1.08.08-1.48-.14-1.23-.66-2.55-.61-3.79-.43-2.41.34-4.73,0-7.07-.42-2.48-.45-4.97-.8-7.51-.6-.16.01-.31.12-.54.21.23.17.34.31.46.31,1.01,0,2.01-.01,3.02,0,.09,0,.18.13.25.18-.12.2-.22.38-.39.67,1.55.28,3.06.15,4.54.28,1.51.13,3,.41,4.51.63-1.22.34-2.42.48-3.63.56-2.47.16-4.91-.2-7.25-.87-1.5-.42-2.94-.62-4.45-.53-1.44.08-2.87.23-4.3.36-.18.02-.36.14-.74.31,2.19.97,4.33,1.1,6.48,1.2ZM108.93,102.23c1.09.77.94,1.82.7,2.86-1.84,1.23-1.9,1.36-1.44,3.03.28-.31.56-.62,1.03-1.14q-1.48,5.87-1.03,7.1c.12-.2.26-.37.32-.56.42-1.29.97-2.55.69-3.98-.08-.4.09-.86.82-.82.37,1.4-.63,2.56-.73,3.88-.1,1.36-.42,2.7-.53,4.05-.1,1.29-.79,2.56-.23,4.03.85-.88.49-2.34,1.82-3.03.05,1.14-.25,2.01-.51,2.89-.29.96-.65,1.91-.92,2.88-.17.6-.31,1.25.14,1.75.7.15,1.15-.93,1.91-.09-.37.46-.82.91-1.13,1.43-.29.48-.53,1.04-.63,1.59-.11.63-.08,1.29-.05,1.94.03.57.06,1.17.24,1.7.18.57.54,1.08.83,1.63q-.5.73-.41,1.52c1.15-.45,2.29-.8,3.27-1.59.49-.4,1.09-.71,1.69-.91,1.09-.37,2.21-.64,3.33-.92.34-.09.74-.2,1.05-.11.97.31,1.84-.09,2.74-.26,3.31-.63,6.63-1.26,9.94-1.89.07-.01.14-.02.21-.02,2.95-.13,5.81-.88,8.72-1.29,2.28-.32,4.54-.71,6.86-.63.71.03,1.43-.13,2.14-.2.64-.06,1.29-.17,1.93-.17,2.23,0,4.46.01,6.7.06.64.02,1.28.13,1.91.28,2.59.62,5.22.97,7.88,1.1.29.01.58,0,.86.06,2.66.55,5.31,1.16,7.93,1.92,2.62.76,5.18,1.78,7.85,2.3,1.88.37,3.46,1.36,5.26,1.84,1.02.27,2.01.77,2.92,1.31,1.07.64,2.24.82,3.44,1.2.3-.89.23-1.68.24-2.46.08-6.55.16-13.1.24-19.65,0-.72.01-1.44.08-2.16.3-3.22.62-6.44.94-9.66.06-.64.19-1.28.24-1.92.06-.67-.09-1.36-.72-1.66-1.03-.5-1.4-1.33-1.59-2.37-.31-1.71-1.3-3.02-2.6-4.11-1.21-1.01-2.37-2.09-3.68-2.95-2.1-1.38-4.22-2.73-6.71-3.36-.9-.23-1.8-.5-2.65-.86-1.52-.65-3.05-1.29-4.49-2.09-2.05-1.14-4.31-1.6-6.53-2.17-.88-.22-1.87.06-2.77-.12-.98-.19-1.9-.62-2.94-.57-.64.03-1.29-.06-1.93-.15-1.49-.21-2.98-.45-4.47-.65-.27-.04-.57.02-.84.07-1.65.32-3.29.22-4.92-.06-1.49-.26-2.97-.56-4.45-.84-1.41-.26-2.82-.62-4.16.28-.11.07-.3.14-.4.09-1.15-.54-2.27.02-3.39.12-2.46.21-4.73,1.14-7.03,1.97-.26.09-.51.27-.74.44-.35.25-.64.66-1.02.76-.44.12-.95-.02-1.43-.05-.43.63-.82,1.22-1.21,1.79-.51-.09-.92-.17-1.3-.24-.52.43-.94.99-1.5,1.21-1.03.42-1.82,1.11-2.59,1.86-.98.95-1.99,1.88-2.97,2.83-.64.62-1.28.34-1.73.11-.86.54-1.55,1.05-2.3,1.44-1.55.82-2.87,1.92-4.03,3.2-.45.49-.74,1.03-.31,1.75.27.44-.03.86-.4,1.1-.34.21-.77.3-1.17.44.14.37.27.73.42,1.13-.51.02-.92.04-1.29.06-.93,2.42-.99,3-.47,4.32.59-.18.64-.7.74-1.19.12-.14.23-.28.35-.42ZM201.05,94.59c1.36-.35,2.54-1.12,3.5-2.05,1.93-1.86,4.2-3.24,6.3-4.87.06.12.12.18.12.24,0,.14-.02.29-.09.42-.88,1.85-2.08,3.43-3.86,4.51-1.28.77-2.5,1.62-3.15,3.05.06,0,.14.04.18,0,1.43-.96,2.85-1.93,4.28-2.89.23-.15.52-.35.76-.32,1.23.12,1.95-.7,2.75-1.4l-.04.02c.96-.28,2-.42,2.87-.88,2.18-1.16,4.06-2.71,5.36-4.87.91-1.53,1.53-3.21,2.56-4.68.28-.39.42-.93.48-1.42.29-2.5.35-5-.71-7.37-.5-1.11-1.1-2.18-1.61-3.29-.32-.68-.81-1.17-1.42-1.57-.78-.51-1.67-.94-2.28-1.62-1.29-1.4-2.87-2.37-4.43-3.39-1.2-.78-2.32-1.75-3.61-2.35-3.02-1.41-5.42-3.46-7.24-6.23-.23-.36-.5-.71-.79-1.03-.23-.25-.52-.43-.92-.76-.11.66-.19,1.12-.29,1.7-.86-.42-.96-1.2-1.21-1.82-1.03-2.57-3.05-4.18-5.42-5.27-2.74-1.26-5.62-2.22-8.74-2-1.07.08-2.16.05-3.24.06-1.01,0-2.01-.03-2.93-.54-.09-.05-.26.05-.4.09-.2.54-.37,1.15-1.1.81-.34-.7-.51-1.46-.97-1.95-.78-.83-1.71-1.54-2.64-2.2-.51-.36-1.15-.68-1.76-.73-2.52-.2-5.04-.27-7.33,1.11-.25.15-.52.25-.77.39-1.09.61-2.25.94-3.51.87-.16,0-.33.08-.54.13.16.19.34.32.32.41-.03.18-.14.48-.26.5-.54.11-1.09.13-1.62.18-.05.2-.1.34-.11.48,0,.36.04.82-.37.9-.28.05-.7-.12-.93-.33-.39-.35-.98-.64-.86-1.41.37,0,.71,0,1.03.01.79-.61.56-2.21,2.11-2.04-2.12-.1-4.19.12-6.27-.08-1.87-.18-3.73-.26-5.39-1.31-.4-.25-1.02-.51-1.4-.37-1.34.48-2.39-.11-3.46-.71-1.32-.75-2.71-1.38-4.2-1.62-.81-.13-1.51-.38-2.23-.72-.78-.37-1.58-.7-2.36-1.06-.93-.43-1.9-.65-2.93-.57-1.5.12-3.01.26-4.51.36-1.18.08-2.22.55-3.24,1.1-.94.52-1.87,1.07-2.83,1.55-1.54.78-3.1,1.52-4.66,2.25-.55.26-.95.58-1.16,1.18-.65,1.9-1.38,3.78-2.03,5.69-.35,1.01-.9,1.89-1.58,2.94-.63-1.14.13-2.41-.8-3.37-.34.28-.45.7-.64,1.06-.16.31-.25.74-.72.63-.56-.14-.47-.63-.44-1.05.03-.4.09-.81.17-1.38-1.81.25-3.42.46-4.99.93-.39.12-.73.45-1.08.7-1.24.87-2.43,1.8-3.72,2.58-.83.5-1.49,1.08-2.04,1.87-.28.4-.61.82-1.02,1.07-1.31.8-1.92,1.16-2.27,2.29-.46,1.48-1.38,2.65-2.17,3.92-.45.73-.98,1.42-1.58,2.03-.7.71-1.52,1.31-2.28,1.97-.38.33-.83.65-.81,1.21.02.81-.47,1.29-.97,1.83-1.68,1.81-2.58,3.93-2.37,6.46.21,2.59,1.16,4.8,3.1,6.64.44-.82-.21-1.65.43-2.51.24.99.44,1.82.63,2.64.29,1.25.88,2.27,2.13,2.79.07.11.14.22.22.32-.08-.1-.17-.2-.25-.3.05-.38.11-.77.22-1.6,1.05,2.14,1.35,4.17,2.69,5.59,1.34,1.43,2.56,3.05,4.54,3.89-.06-.4-.11-.71-.19-1.28.64.57,1.09,1.01,1.58,1.4.5.41,1.05.76,1.55,1.17.46.38,1.18.41,1.63,1.3-.66-.23-1.05-.35-1.44-.5-.41-.16-.76-.56-1.45-.34.35.32.53.54.76.69,1.77,1.1,3.55,2.18,5.32,3.28.69.43,1.43.66,2.24.66.13,0,.26-.08.48-.15.26-.43.55-.92.8-1.33-.15-1.16-.79-1.9-1.49-2.65-1.62-1.73-3.18-3.53-4.76-5.3-1.2-1.34-2.4-2.68-3.57-4.04-.61-.71-1.18-1.45-1.75-2.19-1.63-2.11-3.22-4.24-4.89-6.31-.48-.6-1.15-1.07-1.77-1.54-.29-.22-.68-.23-.97.18-.04,1.02.36,1.91.98,2.74,1.21,1.61,2.41,3.24,3.6,4.86.2.28.48.57.17.95-.14-.02-.33.02-.4-.06-1.63-1.91-3.35-3.77-4.84-5.78-.97-1.31-1.09-2.9-.49-4.54.5,0,.94-.07,1.34.03,1.37.34,2.48,1.12,3.35,2.23,1.65,2.09,3.29,4.19,4.94,6.28.53.68,1.04,1.38,1.6,2.03,1.69,1.96,3.44,3.88,5.1,5.86,1.7,2.03,3.41,4.02,5.93,5.17.59-.47,1.24-.91,1.49-1.72-.28-.38-.69-.69-.76-1.07-.25-1.34-1.15-2.29-1.8-3.34-1.59-.29-1.92-.6-2.1-1.98-.05-.36-.05-.72-.03-1.08.06-1.06-.7-1.68-1.25-2.42-.44-.6-1.04-.31-1.58-.4-.12-.02-.23-.16-.43-.3-.04-.2-.16-.48-.13-.75.18-1.38-.38-2.52-1.06-3.65-.81-1.36-1.54-2.77-2.34-4.13-.5-.86-1.21-1.62-1.58-2.53-.37-.91-.41-1.96-.66-2.93-.4-1.53-.87-3.04-1.29-4.57-.37-1.34-.43-2.7-.09-4.06.07-.29.19-.54.71-.42.22,1.13.45,2.32.69,3.5.15.71.26,1.42,1.21,1.55.17.02.37.43.4.68.07.57.1,1.15.05,1.72-.13,1.72.35,3.27,1.16,4.75.15.28.21.7.68.58.37-.66-.06-1.55.73-2.37.1.6.19.93.21,1.26.05,1.01.06,2.02.09,3.02.02.82.23,1.55,1.06,2.15.07-.39.13-.7.19-1.02.07-.33-.02-.73.42-.87.07.03.19.05.2.09.09.63.29,1.28.23,1.9-.17,1.76.44,3.25,1.43,4.62.17.24.31.68.78.46q-.09-1.57.53-2.41c.25,1.28.46,2.46.72,3.64.12.55.25,1.12.5,1.62.48.96,1.05,1.88,1.6,2.82.14.24.28.51.71.3.02-.39.05-.82.08-1.25.02-.36-.01-.73.06-1.08.08-.36-.17-.86.5-1.1.77,1.78.1,3.71.56,5.5.43-.17.78-.3,1.22-.48.17.76.32,1.37.45,1.93.7.29,1.06-.06,1.35-.5.67-1.02,1.32-2.05,1.98-3.07.29-.45.64-.54,1.14-.09-.1.57-.21,1.19-.32,1.82-.06.03-.12.06-.16.1-.03.03-.03.09-.05.14.06-.09.12-.18.18-.27.51-.94,1.03-1.87,1.61-2.93.89-.4.87-.42,1.36-.99.78-.9,1.18-1.96,1.33-3.12.23-1.86.47-3.71.63-5.57.08-.93.15-1.89-.02-2.79-.63-3.32-1.37-6.62-2.07-9.93-.11-.52-.33-.95-.82-1.2-.58-.29-.71-.84-.92-1.39-.39-1.03-.4-2.32-1.78-2.72-.1-.03-.18-.22-.22-.35-.33-1.14-.18-2.22.48-3.4.37.35.65.56.86.82.45.56.79,1.22,1.31,1.7.72.68,1.09,1.48,1.32,2.41.52,2.09,1.07,4.18,1.65,6.26.94,3.33,1.74,6.68,2.21,10.11.14,1.01-.03,2.21,1.12,2.86.06.78.23,1.57.16,2.33-.09.99-.37,1.95-.65,3.31,1.13-1.16,1.56-2.39,2.45-3.44.78,1.18-.46,2.01-.16,3.02,1-.01,1.3-1.06,2.09-1.4.69.25,1.42.32,1.9-.41.43-.66,1.06-.87,1.77-1.05,1.35-.35,2.27-1.23,2.73-2.54.55-1.57,1.26-3.06,2.17-4.44.89-1.36.98-2.82.78-4.35-.07-.5-.22-.98-.29-1.48-.03-.19.08-.39.12-.56.25.02.43.03.76.05-.31-1.74-.6-3.36-.91-5.05-.34.31-.58.53-.9.81-.54-.75-.33-1.48-.35-2.17-.03-1.07.11-2.14-.27-3.2-.7-1.97-1.44-3.91-2.66-5.64-.7-1-1.34-2.04-1.98-3.08-.42-.69-.97-1.23-1.66-1.66-.88-.55-1.72-.72-2.57.04-.11.1-.34.06-.61.1.2-.88.63-1.43,1.38-1.65.71-.21,1.43-.2,2.1.17.89.49,1.71,1.05,2.28,1.94.74,1.15,1.49,2.3,2.28,3.41,2.33,3.28,3.66,6.99,4.76,10.81.38,1.31.64,2.66.8,4.02.08.67.72.29.84.68.05.66.1,1.3.15,1.95.25-.04.48-.08.8-.14-.01.96.03,1.82-.04,2.67-.1,1.36-.33,2.71-.4,4.07-.05,1.02-.24,1.98-.71,2.88-.03.06.12.23.18.35.46.03.68-.26.67-.65-.02-2.33,1.16-4.4,1.52-6.67-.01,1.22-.03,2.44-.04,3.66-.08.1-.19.18-.24.3-.03.06.06.17.09.25.02-.06.05-.12.06-.18.02-.13.04-.26.06-.39.28-.16.56-.32,1.02-.59.12,1.02.21,1.82.31,2.63.28-.06.46-.04.54-.12.19-.21.38-.44.48-.7.35-.86.63-1.75.99-2.61.11-.27.25-.7.82-.43-.19,1.05-.36,2.1-.57,3.15-.18.91-.2.91-1.25,1.71,1.94.49,3.78,1.01,5.64.4.06-.22.1-.29.1-.36.05-1.72.06-3.45.14-5.17.07-1.7-.39-3.43.3-5.1.07-.18.03-.43-.01-.64-.44-1.96-.9-3.91-1.36-5.86,0-.03-.13-.04-.27-.08-.09.78-.16,1.55-.29,2.31-.05.33-.16.72-.74.52-.05-.24-.14-.51-.17-.79-.43-4.02-.28-8.04-.24-12.07,0-.75.23-1.39.72-1.97.36-.44.63-.96.89-1.47.21-.41.19-.82-.22-1.15-.2-.17-.35-.4-.56-.66,1.72-.35,2.34.09,3.52,2.5-.58.04-1.1.08-1.57.11-.66,1.11-.88,2.2-.88,3.38,0,2.37.09,4.72.71,7.04.54,2.01.95,4.06,1.36,6.1.19.98.26,1.99.34,2.98.17,2.14.21,4.3.49,6.43.16,1.23.24,2.42.13,3.64-.04.05-.08.09-.11.15-.02.04-.02.08-.04.12.04-.1.08-.2.12-.3.56-.19.62-.73.83-1.17.09-.18.21-.34.26-.41.65,0,1.21.01,1.8.02.21.74.41,1.41.61,2.09-.03.13-.06.25-.1.38.02-.13.04-.27.06-.4.75.79,1.58,1.26,2.75.64.46-1.7.12-3.53.49-5.34.43-.34.95-.64,1.32-1.06.52-.58.98-1.23,1.36-1.91.26-.45.27-.99-.23-1.35-.47-.35-.5-.82-.52-1.34-.04-1.5-.11-3-.16-4.51,0-.09.16-.19.31-.36,1.38,1.15.6,3.04,1.58,4.47.17-.39.48-.76.4-.99-.52-1.57-.15-3.14-.1-4.7,0-.1.14-.19.22-.29.18.29.36.58.6.98,1.23-1.08.31-2.64,1.06-3.66.33-.02.6-.03,1.03-.06.28-1.01.56-2.04.84-3.07.07-.28.07-.6.22-.82,1.05-1.56,1.05-3.41,1.43-5.14.03-.15-.13-.35-.22-.57-.84.78-.74,2.06-1.82,2.89-.03-.5-.12-.77-.05-1,.52-1.65,1.06-3.28,1.62-4.91.09-.26.28-.5.47-.72.39-.46,1.26-.35,1.44.22.15.46.19.98.15,1.47-.06.71-.3,1.41-.34,2.12-.13,2.25-.58,4.42-1.33,6.53-1.27,3.6-2.51,7.21-3.87,10.76-.85,2.2-1.34,4.56-2.77,6.45.38.69.45,1,.33,1.41-.43,1.5-.64,3.04-.84,4.71,1.52.13,2.93.26,4.33.38.3-.44.57-.78.77-1.15,1.46-2.64,2.89-5.31,4.38-7.94.81-1.44,1.71-2.83,2.6-4.23.12-.19.33-.53.75-.1-.61,1.57-1.47,3.06-2.23,4.59-.76,1.55-1.61,3.06-2.33,4.63-.71,1.56-1.9,2.86-2.49,4.68.79.12,1.46.23,2.13.34.28-.5.52-.86.71-1.24,1.36-2.7,2.69-5.42,4.57-7.81.35-.45.58-.99.87-1.49.63-1.05,1.25-2.1,1.9-3.13.12-.18.41-.25.86-.51-.1.68-.14,1.1-.23,1.51-.07.35-.14.72-.31,1.03-.79,1.45-1.64,2.87-2.44,4.31-1.25,2.27-2.48,4.55-3.7,6.83-.19.36-.28.78-.41,1.13,2.62,2.28,4.54,3.21,8.11,3.97.2-.41.41-.84.6-1.23-.66-.77-1.26-1.46-1.84-2.13.19-.9.49-1.72,1.19-2.08,1.05-.53,1.33-1.44,1.62-2.41.1-.33.25-.64.41-1.06.26.31.43.5.7.82.88-1.58,2.15-2.88,2.36-4.71,1.35-.09,1.74-1.01,1.95-2.03.12-.56.06-1.15.12-1.72.02-.22.16-.43.29-.73.37.44.62.73.93,1.1.6-.69,1.22-1.23,1.61-1.89.71-1.2,1.75-2.07,2.76-2.96.58-.52,1.26-.92,1.86-1.35.23-.88-.44-1.76.26-2.59,1.03.37.18,1.51.93,2.07.33-.08.78-.1,1.14-.29,1.36-.7,2.33.34,2.19,1.52-.2,1.66-.75,3.21-1.4,4.74-.52,1.22-1.33,2.21-2.23,3.15-.29.31-.61.34-.94-.22,1.24-2.3,2.52-4.69,2.88-7.6-.5.03-.86-.02-1.17.09-2.03.74-3.59,2.08-4.77,3.88-.27.42-.46.98-.84,1.22-.87.54-.93,1.39-1.16,2.21-.19.67.14,1.46-.53,2.14-.27,0-.75-.16-.94.01-1.22,1.1-2.45,2.2-2.25,4.13.12,1.14-.05,2.31.04,3.45.1,1.34-.52,2.29-1.47,3.3-.22-.3-.5-.51-.5-.71.02-.57.12-1.14.25-1.69.16-.67.31-1.33.08-2.29-1.44,2.36-1.7,4.62-1.18,7.11,1.39.78,2.86,1.54,4.27,2.4,1.45.88,2.86,1.85,4.41,2.85,1.41-1.45,2.83-2.87,4.19-4.34,1.71-1.85,3.29-3.83,5.07-5.6,2.46-2.45,5.26-4.48,8.47-5.86.63-.27,1.39-.33,2.09-.35.82-.02,1.19.39,1.18,1.2,0,.42,0,.94-.24,1.24-.62.78-1.35,1.48-2.08,2.15-.12.11-.53,0-.74-.12-.09-.05-.11-.43-.02-.58.45-.73.95-1.43,1.4-2.17.06-.09-.11-.37-.23-.5-.06-.07-.34-.05-.4.02-1.06,1.4-2.71,2.09-3.96,3.25-.53.49-1.09.94-1.6,1.45-.64.65-.72,1.96-2.09,1.74-.05,0-.13.08-.16.14-.63,1.15-1.64,2.21-.81,3.81.38-.28.7-.56,1.06-.79.48-.3.97-.61,1.5-.83.28-.12.7-.27.89.27-1.45,1.49-3.02,2.82-4.85,3.85-1.12.63-2.16,1.42-3.24,2.14-.97.64-1.39,1.54-1.33,2.93.36-.32.54-.51.76-.66.23-.17.2-.74.87-.45-.27.59-.54,1.16-.78,1.74-.17.39-.06.7.46.91,1.28-.79,2.56-1.68,3.68-2.81,1.67-1.69,3.34-3.38,5.06-5.02,2.36-2.26,4.99-4.12,8.03-5.36.59-.24,1.13-.57,1.8-.92.76.37,1.57.77,2.37,1.16,1.09-1.23,1.61-2.66,1.75-4.31.09-1.09.48-2.16.77-3.38.82.56.74,1.25.66,1.85-.2,1.42-.49,2.83-.79,4.23-.09.41-.25.83-.46,1.2-.47.88-.99,1.74-1.47,2.61-.36.65-.77,1.22-1.54,1.4-.13.03-.28-.04-.53-.08-.19-.45-.4-.96-.64-1.53-.4.01-.84-.19-1.12.33l.04-.03c-.85.51-1.43-.22-1.99-.5-.2.08-.27.1-.33.14-4.7,2.78-8.31,6.8-12.06,10.66-.1.06-.19.12-.29.18.09-.07.18-.14.27-.21ZM151.86,129.17c-1.53.32-2.85-.46-4.02.44-1.28.01-2.55.02-3.83.04-.07,0-.14.02-.21.02-2.86.21-5.72.43-8.58.64-.57.04-1.11.09-1.66.72,1.17.01,2.17.03,3.17.03,1.01,0,1.98.63,3.04.29-.12-.3-.65-.13-.43-.67,1.49-.02,3-.05,4.5-.06,1.51,0,3.02.04,4.52.01,1.47-.03,2.96.25,4.49-.2-.49-.69-1.36-.13-1.76-.78.17-.11.29-.18.76-.47ZM153.02,131.87c.82.27,1.25.53,1.68.53,2.93-.04,5.82.98,8.77.28.54-.13,1.14-.02,1.72-.02,1.29,0,2.59,0,3.87.04.89.04,1.68-.2,2.55-.77-6.14-.23-12.14-.23-18.59-.06ZM94.22,93.18c-.02-.23-.1-.46-.03-.61.23-.47.49-.07.64.06.96.87,1.88,1.77,2.84,2.64.23.21.42.59.91.34-.32-.51-.58-1.02-.93-1.46-.26-.33-.66-.55-.96-.85-.41-.4-.79-.82-1.18-1.24-.58-.64-1.14-1.3-1.72-1.92-.44-.47-.89-.99-1.65-.59-.44-.29-.88-.59-1.36-.91.21,2.25.85,3.08,3.45,4.54ZM188.5,140.9c-.19-.49-.52-.9-.45-1.22.26-1.05-.41-1.49-1.14-1.75-.96-.35-1.92-.81-3.25-.81.47.49.75.8,1.04,1.09.48.48,1.04.79,1.33,1.56.3.8,1.25,1.27,2.47,1.12ZM167.16,130.78c-.08-.15-.12-.34-.19-.36-1.25-.26-2.5-.69-3.76-.7-1.24,0-2.48.4-3.72.65-.1.02-.16.2-.26.32,2.65.03,5.28.06,7.93.08ZM136.3,79.03c.51-.75,1.05-1.49,1.52-2.27.34-.54.63-1.12.88-1.71.4-.92.36-1.34-.07-2.49-.98.93-.78,2.22-.97,3.35q-1.26,1.01-1.37,3.12ZM197.51,88.62c1.38-.77,2.5-1.8,3.36-3.1.18-.28.26-.67.27-1.01,0-.3-.21-.52-.71-.4-.38,1.83-2.32,2.68-2.92,4.51ZM125.26,134.61c-1.07-.18-1.93.18-2.78.51-.33.13-.61.38-.38.81,1.62.28,2.07.25,3.44-.2-.08-.33-.16-.67-.28-1.12ZM115.39,144.13c1.09.4,1.88.7,2.68.98.76.26,1.35.97,2.43.91-1.16-.73-2.18-1.35-3.18-2-.54-.35-1.06-.28-1.93.11ZM139.91,74.94c-.11.06-.3.1-.33.19-.36.91-.7,1.83-1.13,2.97,1.78-1.33,1.87-1.55,1.47-3.16ZM145.01,132.32c1.29.21,2.31.92,3.56-.14-1.23-.03-2.24-.85-3.56.14ZM122.89,136.93c.79.46,1.56.47,2.8.03-1.25-.31-2.02-.44-2.8-.03ZM122.76,80.37q.34-2.43-.14-3.97c-.06,1.34-.19,2.48.14,3.97ZM120.81,133.56c-1-.06-1.72.01-2.48.66.89-.01,1.65.14,2.48-.66ZM122.29,85.15c.36-.6.57-.84.64-1.12.11-.42.17-.87-.22-1.38-.42.76-.56,1.39-.42,2.5ZM133.69,131.68s0,.06,0,.09h1.21s0-.05,0-.08c-.4,0-.81,0-1.21-.01ZM110.83,43.51c-.32.34-.54.58-.87.92.65-.05.91-.26.87-.92ZM152.65,39.33c0,.07,0,.14,0,.21.25.02.51.06.77.06.1,0,.21-.08.31-.13-.12-.04-.23-.11-.35-.12-.24-.02-.48-.01-.72-.01ZM112.02,141.43c0,.21-.03.31,0,.34.19.16.39.31.6.45.01,0,.12-.07.14-.12.15-.38-.2-.43-.4-.57-.05-.04-.13-.04-.34-.09ZM216.46,83.42c.19-.19.38-.37.57-.55-.12-.05-.27-.17-.36-.14-.18.06-.34.21-.5.32.07.09.15.18.3.36ZM101.14,96.42c-.16.09-.34.14-.35.22-.02.09.08.26.17.3.1.05.25,0,.38-.01-.06-.17-.13-.34-.19-.52ZM185.19,141.79c-.14-.11-.28-.22-.43-.33-.05.12-.16.27-.13.36.07.15.23.25.35.37.06-.11.12-.23.21-.4ZM112.63,139.39s-.04,0-.05,0c0,.2,0,.4,0,.6.03-.04.08-.08.08-.13,0-.16-.01-.32-.02-.47ZM123.21,133.81c-.14-.13-.21-.25-.3-.27-.12-.03-.26.01-.39.03.02.1.04.27.06.27.19.01.38-.01.63-.03ZM84.14,80c.06-.02.12-.05.18-.07-.06-.12-.11-.25-.2-.34-.03-.03-.18.08-.28.13.1.1.2.19.29.28ZM191.64,139.45c-.09.06-.18.11-.27.17.05.04.09.12.14.12.12,0,.25-.02.38-.04-.08-.08-.16-.17-.24-.25ZM189.92,141.48c.11-.11.19-.17.19-.21-.03-.14-.09-.27-.14-.41-.01.18-.03.36-.04.61ZM165.68,79.68c-.06,0-.13,0-.19-.01.06.05.12.1.17.15,0-.05.01-.09.02-.14ZM172.82,134.66c-.06,0-.12,0-.18-.01.05.04.11.09.16.13,0-.04.01-.08.02-.12ZM120.14,86.49c-.02-.05-.04-.11-.06-.16-.09.04-.18.08-.27.14-.01,0,.03.1.05.15.09-.04.18-.08.27-.12ZM125.62,138.04l-.19.04.15.06.04-.11ZM184.2,139.48c-.05.01-.1.02-.16.03.01.04.02.12.04.12.05,0,.1-.02.15-.03-.01-.04-.03-.08-.04-.12ZM195.72,92.04l-.07-.17-.08.17h.15Z"/>
      <path class="cls-1" d="M108.57,102.64c-.5-.58-.46-.72.36-1.22l-.04-.03c0,.28.02.56.03.84-.12.14-.23.28-.35.42Z"/>
      <path class="cls-1" d="M194.64,83.67c.85,1.32.19,2.44-.5,3.54-.18.29-.65.18-.87-.19-.1-.17-.1-.41-.17-.73-.27.38-.5.7-.77,1.08-.37,0-.78-.04-1.18,0-.34.03-.67.13-1,.2-.39-1.59-.38-2.19.07-3.75.91.51.14,1.65.94,2.3.55-1.04.42-2.07.26-3.1.42-.27.66-.05.85.28.16.28.3.59.5,1,2.03-2.22,3.95-4.32,5.83-6.38.69.23.74.67.58,1.08-.44,1.13-.91,2.25-1.43,3.35-.27.56-.72.54-1.38.03-.1-.08-.21-.16-.37-.28-.6.39-.97.99-1.32,1.61-.05.05-.11.08-.15.14-.02.04,0,.1-.01.15.04-.1.09-.21.13-.31Z"/>
      <path class="cls-1" d="M145.79,61.79c-.81-.76-.71-1.37-.57-1.88.79-2.94.93-5.94.96-8.95,0-.28.08-.56.14-.84.01-.06.08-.1.23-.29.15.27.36.47.38.69.21,2.87.04,5.73-.54,8.55-.17.82-.36,1.63-.6,2.72Z"/>
      <path class="cls-1" d="M132.11,56.36c-.23-1.2-.06-3.05.57-5.9.54.59.5,1.25.43,1.84-.15,1.33-.4,2.64-.63,3.96-.01.06-.24.08-.37.11Z"/>
      <path class="cls-1" d="M134.72,70.55c-.23,1.69-.94,3.3-.89,5.05,0,.25-.2.54-.38.74-.12.13-.4.22-.56.16-.14-.05-.34-.35-.31-.47.49-1.64,1.01-3.27,1.56-4.88.08-.23.4-.38.6-.57l-.03-.03Z"/>
      <path class="cls-1" d="M146.64,69.95c-.4-2.32.51-4.32,1.47-6.31-.38,1.94-.75,3.89-1.14,5.83-.04.18-.22.33-.33.49Z"/>
      <path class="cls-1" d="M119.9,70.4c.71,1.01.77,2.52.22,4.38-.36.07-.53-.14-.53-.46,0-1.14,0-2.27.04-3.41,0-.17.17-.33.27-.52Z"/>
      <path class="cls-1" d="M128.96,52.67c-.2-1.62.49-3.08.49-4.58.47-.12.67.11.63.39-.2,1.32-.44,2.63-.69,3.93-.02.08-.22.13-.43.25Z"/>
      <path class="cls-1" d="M112.89,47.73c-.1,1.14-.03,2.22-.71,3.13-.1.14-.39.24-.56.21-.15-.03-.38-.29-.36-.43.05-.41.12-.85.32-1.19.35-.57.81-1.08,1.31-1.72Z"/>
      <path class="cls-1" d="M176.19,49.41c.16-1.54.96-2.43,1.7-3.33.57.11.67.44.48.8-.43.82-.9,1.61-1.4,2.39-.07.11-.37.07-.78.14Z"/>
      <path class="cls-1" d="M216.02,72.39c.32.17.61.21.66.35.38.97.29,1.97.07,2.95-.03.14-.31.32-.47.31-.15,0-.38-.22-.41-.37-.19-1.06-.17-2.12.15-3.25Z"/>
      <path class="cls-1" d="M215.42,84.36c.19.19.55.4.54.58-.06.76-.16,1.53-.4,2.24-.14.42-.58.6-1.06.06.31-.94.63-1.92.96-2.91,0,0-.03.03-.03.03Z"/>
      <path class="cls-1" d="M113.59,51.48c.02,1.28.26,2.29-.08,3.26-.45.1-.6-.13-.6-.43-.02-.9-.09-1.81.68-2.83Z"/>
      <path class="cls-1" d="M134.74,56.8c-.97-.59-1.04-1.24-.39-3.09.12.05.32.08.35.17.35.96.31,1.92.04,2.92Z"/>
      <path class="cls-1" d="M179.12,53.9c-.75,1.01-1.13,2.28-2.21,3.25.13-1.46.49-2.02,2.21-3.25Z"/>
      <path class="cls-1" d="M179.65,49.86c-.5,1.24-1.43,2.42-2.31,2.93.01-1.29.52-1.94,2.31-2.93Z"/>
      <path class="cls-1" d="M217.74,74.03q.38,1.44-.09,2.45c-.72-1.08-.69-1.87.09-2.45Z"/>
      <path class="cls-1" d="M212.32,88.26c.14.21.43.44.4.62-.12.87-.27,1.75-.92,2.42,0,0,.04-.02.03-.02-.6-.54-.73-1.12-.21-1.82.29-.38.49-.82.73-1.24l-.04.03Z"/>
      <path class="cls-1" d="M153.09,44.75q1.3.44,1.91,2.15c-.23-.06-.47-.05-.55-.16-.25-.34-.42-.73-.65-1.08-.17-.27-.39-.5-.71-.9Z"/>
      <path class="cls-1" d="M134.76,70.58c.15-.39.31-.78.5-1.26.08.24.18.4.14.45-.2.28-.45.52-.68.78l.03.03Z"/>
      <path class="cls-1" d="M212.36,88.23c-.1-.09-.24-.17-.28-.29-.03-.11.04-.25.1-.37.02-.05.12-.05.18-.08.02.12.07.24.06.36,0,.14-.07.27-.11.4l.04-.03Z"/>
      <path class="cls-1" d="M180.74,105.47c-.94.23-1.42-.27-1.97-.56-2.42-1.26-4.65-2.81-6.86-4.39-.06-.04,0-.25,0-.38.13-.05.29-.18.38-.15,1.59.65,6.48,3.81,8.46,5.48Z"/>
      <path class="cls-1" d="M155.31,95.04c-.16,1.18-.29,2.37-.48,3.55-.14.83-.33,1.66-.67,2.38-.45.07-.66-.13-.64-.44.04-.56.16-1.12.23-1.64-.25-.31-.47-.57-.76-.93.62-1.08,1.32-2.12,2.17-3.06l.15.14Z"/>
      <path class="cls-1" d="M183.35,99.28c1.53.31,3.97,1.83,5.99,3.67-.07.12-.13.31-.23.33-.2.05-.47.09-.62,0-1.76-1.19-3.67-2.19-5.15-4Z"/>
      <path class="cls-1" d="M193.81,115.11c-.13-1.81-.02-3.62.19-5.69.37.28.71.42.71.56.05,1.49.08,2.98.05,4.47,0,.28-.32.56-.5.83-.15-.06-.3-.11-.45-.16Z"/>
      <path class="cls-1" d="M111.71,105.83c-.15-.38-.3-.56-.29-.73.08-1.12.82-1.95,1.33-2.87.36-.64.79-1.26,1.53-1.58-.75,1.74-1.4,3.5-2.57,5.18Z"/>
      <path class="cls-1" d="M115.28,119.57c.03.21.14.44.08.6-.66,1.64-1.12,3.36-1.91,4.95-.01.03-.13,0-.2.01-.07-.12-.21-.25-.19-.36.05-.42.09-.86.25-1.25.49-1.27,1.03-2.52,1.57-3.77.04-.09.23-.1.41-.18Z"/>
      <path class="cls-1" d="M150.3,117.07c-.04-.06-.12-.11-.12-.17,0-.21,0-.43.06-.62.12-.33.26-.66.44-.97.64-1.07,1.31-2.12,1.97-3.18.51.31.37.67.26.99-.54,1.52-1.63,3.16-2.61,3.95Z"/>
      <path class="cls-1" d="M151.87,103.92c.31,1.93-1.07,2.96-1.2,4.8-.5-.55-.8-.74-.8-.92,0-1.52.83-2.62,2-3.88Z"/>
      <path class="cls-1" d="M184.22,103.25c-1.93-.82-3.8-1.66-5.59-2.9,1.14-.02,1.14-.02,1.81.35,1.34.75,2.92,1.13,3.78,2.55Z"/>
      <path class="cls-1" d="M195.91,119.82c.31.74.03,1.26-.24,1.75-.18.33-.53.57-.88.31-.24-.18-.48-.56-.48-.85,0-.31.23-.71.49-.89.3-.21.74-.22,1.11-.32Z"/>
      <path class="cls-1" d="M156.32,122.33c-1.44.88-2.29.88-3.54.15,1.02-.57,1.15-.58,3.54-.15Z"/>
      <path class="cls-1" d="M190.24,99.73c1.11.36,1.69,1.24,2.63,2.19q-1.24-.33-2.63-2.19Z"/>
      <path class="cls-1" d="M115.43,126.37c.89-.93,1.95-1.28,3.64-1.04-1.3.78-2.42.86-3.39,1.34-.08-.1-.17-.2-.25-.3Z"/>
      <path class="cls-1" d="M111.08,120.88c.31,1.13.3,1.12-.15,2.31-.33-.9-.08-1.59.15-2.31Z"/>
      <path class="cls-1" d="M112.39,99.28c-.18.53-.36,1.06-.68,2.01-.25-1.2.14-1.63.71-1.98l-.03-.02Z"/>
      <path class="cls-1" d="M112.02,127.46c.17.33.33.58.44.86.02.05-.18.27-.24.25-.34-.11-.6-.32-.55-.72.01-.1.16-.18.35-.39Z"/>
      <path class="cls-1" d="M155.15,94.9c.17-.3.34-.6.51-.91.08.06.17.12.25.18-.2.29-.41.58-.61.87,0,0-.15-.14-.15-.14Z"/>
      <path class="cls-1" d="M112.54,107.74c-.15-.1-.31-.16-.33-.23-.02-.11.04-.27.12-.35.04-.05.2,0,.31.02-.03.18-.06.36-.1.56Z"/>
      <path class="cls-1" d="M115.68,126.67c-.29.1-.58.21-.97.34.06-.62.48-.5.72-.64.08.1.17.2.25.3Z"/>
      <path class="cls-1" d="M108.93,101.42c.04-.12.07-.24.11-.37-.05.11-.1.22-.15.34l.04.03Z"/>
      <path class="cls-1" d="M173.93,124.97c-.1-.04-.21-.09-.31-.13.05,0,.1,0,.14.03.05.03.1.09.14.13l.03-.03Z"/>
      <path class="cls-1" d="M112.42,99.31c.05-.1.1-.2.15-.29,0,.05,0,.11-.02.15-.04.05-.1.08-.16.12l.03.02Z"/>
      <path class="cls-1" d="M140.11,136c.62-.08.95-.15,1.28-.16,2.89-.05,5.74.23,8.59.71,1.7.29,3.41.53,5.44.29-1.11-.42-2.07-.16-3.23-.72.84-.07,1.31-.15,1.79-.14,3.24,0,6.48.01,9.72.04.57,0,1.17.01,1.71.16,1.34.36,2.69.45,4.06.46.18,0,.36.1.62.17-2.5.94-4.96.93-7.46.43-.63-.12-1.29-.11-1.93-.09-.26,0-.62.12-.74.31-.47.73-1.18.72-1.91.74-2.81.11-5.61-.08-8.38-.57-2.48-.44-4.95-.95-7.48-.99-.64-.01-1.26-.13-2.07-.65Z"/>
      <path class="cls-1" d="M149.94,144.84c2.67-.51,16.91-.57,23.01-.12.46.03.92.16,1.39.24-.16.57-.54.62-.88.63-1.07.06-2.15.12-3.23.11-5.02-.05-10.05-.11-15.07-.22-1.43-.03-2.86-.2-4.29-.32-.25-.02-.48-.16-.93-.32Z"/>
      <path class="cls-1" d="M175,141.22c-1.15.47-1.96.57-2.82.5-2-.17-4-.28-6-.44-1.07-.09-2.14-.26-3.21-.32-3.15-.19-6.31-.33-9.46-.51-.77-.04-1.54-.13-2.29-.28,1.73-.4,8.22-.62,11.34-.24,4,.49,8.09.16,12.44,1.29Z"/>
      <path class="cls-1" d="M134.54,135.83c-.35-.21-.7-.42-1.18-.71.85-.35,1.53.14,2.23.2.77.07,1.54.11,2.31.29-1.12.41-2.27.14-3.4.19,0,0,.04.03.04.03Z"/>
      <path class="cls-1" d="M134.5,144.47c-.33,0-.67.01-1-.02-.1-.01-.19-.16-.28-.25.11-.07.23-.2.34-.2.33,0,.66.05.99.08-.02.13-.04.26-.05.39Z"/>
    </g>
    <g>
      <path class="cls-2" d="M265.1,115.63c-.83,0-1.5-.67-1.5-1.5,0-61.28-49.85-111.13-111.13-111.13S41.33,52.85,41.33,114.13c0,.83-.67,1.5-1.5,1.5s-1.5-.67-1.5-1.5C38.33,51.2,89.53,0,152.46,0s114.13,51.2,114.13,114.13c0,.83-.67,1.5-1.5,1.5Z"/>
      <path class="cls-2" d="M49.08,181.97c-.58,0-1.13-.34-1.38-.9-6.13-14.15-9.37-29.83-9.37-45.36,0-.83.67-1.5,1.5-1.5h0c.83,0,1.5.67,1.5,1.5,0,15.12,3.15,30.39,9.12,44.16.33.76-.02,1.64-.78,1.97-.19.09-.4.12-.6.12Z"/>
      <path class="cls-2" d="M255.43,181.97c-.2,0-.4-.04-.6-.12-.76-.33-1.11-1.21-.78-1.97,5.97-13.77,9.12-29.05,9.12-44.16,0-.83.67-1.5,1.5-1.5s1.5.67,1.5,1.5c0,15.52-3.24,31.21-9.37,45.36-.25.57-.8.9-1.38.9Z"/>
      <circle class="cls-2" cx="39.83" cy="125.66" r="2.23"/>
      <circle class="cls-2" cx="265.1" cy="125.66" r="2.23"/>
    </g>
  </g>
  <g>
    <g>
      <g>
        <g>
          <path class="cls-1" d="M58.17,267.09c-.21,0-.41-.04-.61-.12-2.46-.56-5.89-2.23-9.19-6.85-2.8-3.92-8.47-13.98-13.53-23.64-.76-1.45-1.51-2.9-2.23-4.31-7.31,1.26-15.77.17-22.04-.64-2.6-.34-4.76-.62-6.05-.73,1.11,1.12,2.16,2.14,3.13,3.09,6.25,6.1,9.68,9.44,14.41,21.28.13.33.16.67.1,1-.81,4.27-2.11,8.77-4.13,13.33-1.65,3.71-3.78,7.44-6.53,11.07,8.89,1.23,17.86,1.91,26.65,1.41,9.73-.56,19.27-2.57,28.27-6.91,7.84-3.78,11.36-8.07,12.15-11.2.21-.81.21-1.49.05-2.01-.02-.05-.03-.1-.05-.15-.04-.07-.11-.19-.2-.35-.1-.12-.21-.22-.34-.29-.66-.36-1.77-.21-3.21.64-7.67,4.56-13.02,5.33-13.86,5.43-.33.06-1.34.2-2.78-.04h0ZM223.63,259.34c1.2-2,4.83-7.59,9.83-10.76-18.82-14.12-49.88-21.18-80.99-21.18s-62.18,7.06-80.99,21.18c5,3.17,8.63,8.76,9.83,10.76.3.43.54.92.71,1.46.35,1.13.37,2.47,0,3.93-1.01,3.96-5.11,9.21-14.06,13.53-9.45,4.56-19.44,6.67-29.62,7.25-10.11.58-20.37-.35-30.45-1.89h0c-.32-.05-.62-.18-.88-.4-.75-.64-.84-1.76-.21-2.51,3.51-4.14,6.09-8.42,7.97-12.67,1.81-4.08,3-8.15,3.78-12.05-4.36-10.75-7.58-13.89-13.39-19.57-1-.98-2.07-2.03-3.26-3.21-2.14-2.15-2.4-3.73-1.16-4.96,1.4-1.4,5.17-.91,10.26-.25,5.72.74,13.33,1.72,19.9.82-3.15-6.29-5.55-11.56-6.04-13.59-.88-3.64.49-9.85,7.79-16.95,4.95-4.81,12.69-10.13,24.46-15.47,29.18-13.22,62.27-19.83,95.35-19.83s66.17,6.61,95.35,19.83c11.77,5.33,19.51,10.66,24.46,15.47,7.3,7.1,8.66,13.31,7.79,16.95-.49,2.03-2.89,7.3-6.04,13.59,6.57.9,14.19-.08,19.9-.82,5.09-.66,8.86-1.14,10.26.25,1.24,1.24.99,2.81-1.16,4.96-1.18,1.19-2.26,2.24-3.26,3.21-5.81,5.67-9.03,8.82-13.39,19.57.78,3.9,1.97,7.97,3.78,12.05,1.88,4.22,4.44,8.49,7.91,12.6.24.26.41.58.46.96.15.97-.52,1.88-1.5,2.03-10.08,1.53-20.34,2.46-30.44,1.89-10.17-.58-20.16-2.69-29.62-7.25-8.95-4.32-13.06-9.57-14.06-13.53-.37-1.46-.35-2.81,0-3.93.17-.54.41-1.03.71-1.46h0ZM237.78,247.44c-.43-.35-.87-.7-1.33-1.05-19.37-15.04-51.71-22.56-83.98-22.56s-64.61,7.52-83.98,22.56c-.46.36-.9.71-1.33,1.05-.05.04-.1.08-.15.12-8.57,6.97-10.9,11.87-11.18,14.95-1.36-.82-2.93-2.19-4.55-4.46-2.72-3.81-8.29-13.7-13.28-23.22-.95-1.81-1.88-3.6-2.76-5.34-.04-.1-.09-.19-.14-.28-3.51-6.92-6.28-12.82-6.76-14.81-.65-2.7.62-7.55,6.81-13.58,4.68-4.55,12.08-9.62,23.44-14.77,28.71-13.01,61.29-19.51,93.88-19.51s65.18,6.5,93.88,19.51c11.35,5.14,18.76,10.22,23.44,14.77,6.2,6.03,7.46,10.88,6.81,13.58-.48,1.99-3.24,7.89-6.76,14.81-.06.09-.1.18-.14.28-.88,1.73-1.81,3.53-2.76,5.34-4.99,9.52-10.57,19.41-13.28,23.22-1.62,2.27-3.19,3.64-4.55,4.46-.28-3.08-2.62-7.98-11.18-14.95-.05-.04-.1-.09-.15-.12h0ZM236.46,250.96c-2.96,1.5-5.5,4.21-7.29,6.54.88.2,1.8.57,2.76,1.14,7.21,4.29,11.87,4.9,12.43,4.96.09,0,.19.02.29.04,0,0,.39.09,1.06.04.46-1.02.74-4.51-9.25-12.73h0ZM226.57,261.35c-.09.16-.16.28-.2.35-.02.05-.04.09-.05.14-.16.51-.15,1.2.05,2.01.8,3.13,4.31,7.42,12.16,11.2,8.99,4.34,18.53,6.35,28.27,6.91,8.79.5,17.76-.18,26.65-1.41-2.75-3.63-4.88-7.36-6.53-11.07-2.03-4.56-3.32-9.06-4.13-13.33-.07-.38-.02-.75.13-1.07,4.72-11.78,8.14-15.12,14.38-21.2.97-.95,2.02-1.97,3.13-3.09-1.28.12-3.45.4-6.05.73-6.27.81-14.73,1.9-22.04.64-.72,1.41-1.47,2.86-2.23,4.31-5.06,9.66-10.74,19.72-13.53,23.64-3.3,4.62-6.73,6.3-9.19,6.85-.19.08-.4.12-.61.12-1.44.24-2.45.1-2.78.04-.85-.1-6.19-.87-13.86-5.43-1.44-.85-2.55-1-3.21-.64-.13.07-.24.17-.34.29h0ZM75.76,257.5c-.87.2-1.8.57-2.76,1.14-7.69,4.57-12.48,4.97-12.49,4.97-.08,0-.16.02-.23.04,0,0-.39.09-1.06.04-.46-1.02-.74-4.51,9.25-12.73,2.96,1.5,5.5,4.21,7.29,6.54h0Z"/>
          <path class="cls-1" d="M3.58,230.73c-.19,0-.29.01-.32.04-.21.21,0,.08.32-.04h0Z"/>
          <path class="cls-1" d="M301.35,230.73c.31.12.53.25.32.04-.03-.03-.14-.04-.32-.04Z"/>
        </g>
        <g>
          <path class="cls-2" d="M240.8,251.55s-.02.07-.04.11c-.16.18-1.51.59-1.31-.22,0-.19.53-.32.93-.26-.94-.83-1.78-1.54-2.41-2.05-.74-.61-1.72-.72-2.59-.29-.45.23-.9.48-1.33.76.07.17.19.28.17.54-.45-.3-.67.04-.91-.05-1.28.89-2.48,1.96-3.58,3.1.08.19.03.35-.31.44.02-.06.03-.11.04-.15-.78.84-1.51,1.71-2.18,2.58-.08.1-.14.2-.2.31.12.26.29.47.39.75-.31.17-.52.06-.63-.14-.1.43-.07.89.09,1.34.28.79.9,1.33,1.71,1.51.73.16,1.43.48,2.07.86,2.05,1.22,4.74,2.62,7.46,3.68.01-.51.22-.96.64-.5-.31-.02-.27.32-.22.66.14.05.28.1.42.16-.15-.76.55-.08.12.04,1.72.62,3.43,1.08,4.98,1.25.02,0,.05,0,.07,0,.55.12,1.16.13,1.71.09.89-.07,1.63-.58,1.99-1.4,1.85-4.1-3.21-9.61-7.08-13.12ZM228.56,258.2c-.21-.91.65-.04,0,0h0ZM229.65,254.05c.66.74-.81.66,0,0h0ZM229.65,255.14c-.73.53.53-.73,0,0h0ZM229.65,256.67c-.21-.91.65-.04,0,0h0ZM229.86,258.85c-.21-.91.65-.04,0,0h0ZM238.15,251.87c-.21-.91.65-.04,0,0h0ZM237.49,250.78c1.26-.63.58.54,0,0h0ZM237.45,250.18c.16-.03.33-.07.39-.08-.02,0-.06.01-.13.03-.11.02-.19.04-.26.05-.13.03-.25.05-.3.06.04,0,.13-.03.3-.06ZM236.4,250.57c-.21-.91.65-.04,0,0h0ZM236.4,255.36c-.24-1.16.67-.26,0,0h0ZM233.35,255.58c-.21-.91.65-.04,0,0h0ZM233.13,252.53c-.21-.91.65-.04,0,0h0ZM231.39,253.62c.61,1.04-.71.53,0,0h0ZM231.17,256.89c-.21-.91.65-.04,0,0h0ZM231.61,261.03c0-.22-.18-.26-.22-.44.22,0,.26-.18.44-.22,0,.22.17.26.22.44-.22,0-.26.18-.44.22ZM232.26,254.71c-.24-1.16.66-.26,0,0h0ZM233.13,261.68c-.66-.73.81-.66,0,0h0ZM233.79,258.85c-.7.19-.31-.71-.65-.87.73-.22.72.3.65.87ZM233.79,255.8c.22,0,.26-.18.44-.22,0,.22.18.26.22.44-.22,0-.26.18-.44.22,0-.22-.18-.26-.22-.44ZM234.44,259.07c-.14-.14.09.09,0,0h0ZM235.31,260.59c-.11-.32-.32-.55-.44-.87.73-.41.92.78.44.87ZM235.31,262.77c-.04-.48.18-.69.65-.65.04.48-.18.69-.65.65ZM235.75,257.76c-.05-.17-.18-.25-.44-.22.03-.41.14-.73.44-.87.49.21.41.7,0,1.09ZM236.4,257.54c-.14-.14.09.09,0,0h0ZM236.19,256.67c-.04-.55.34-.68.65-.87-.09.42-.08.94-.65.87ZM237.06,252.09c.56.02.76.4,1.09.65-.29,0-.2.38-.44.44-.07-.51-.76-.41-.65-1.09ZM237.28,261.25c-.14-.14.09.09,0,0h0ZM237.93,254.49c-.11-.49.55-1.31.87-.65-.57-.06-.17.85-.87.65ZM238.23,256.5c.06,0,.18-.02.35-.05.56-.08-.12.02-.35.05ZM238.8,258.2v.44h-.44v-.44h.44ZM238.37,261.25c-.21-.91.65-.04,0,0h0ZM238.8,261.9c-.2.12-.3.18-.34.2.06-.04.3-.17.42-.25-.02.01-.05.03-.09.05ZM238.8,252.53v-.44h.43v.44h-.43ZM239.46,262.77c.09.09-.14-.14,0,0h0ZM239.24,253.4c-.21-.91.65-.04,0,0h0ZM239.89,259.72c-.21-.91.65-.04,0,0h0ZM240.55,257.32c-.14-.14.09.09,0,0h0ZM244.25,257.32c-.21-.91.65-.04,0,0h0ZM242.51,257.98c.07.58-.45.56-.87.65-.07-.57.3-.72.87-.65ZM241.42,262.77c-.71-.68.77-.37,0,0h0ZM242.07,264.74c-.21-.91.65-.04,0,0h0ZM242.29,262.99v-.65c.44-.19,1.2.34.65.44-.01-.13-.03-.26-.22-.22-.03.27-.07.52-.44.44ZM242.95,263.86c.09.09-.14-.14,0,0h0ZM242.73,264.52c-.21-.91.65-.04,0,0h0ZM242.95,265.61c-.21-.9.65-.04,0,0h0ZM243.38,264.52c-.21-.91.65-.04,0,0h0ZM244.04,260.16c-.71-.68.77-.37,0,0h0ZM244.47,263.65c-.71-.68.77-.37,0,0h0ZM245.34,264.3c-.21-.91.65-.04,0,0h0ZM246.22,262.12c-.14-.14.09.09,0,0h0ZM246.87,259.29c-1.28-.85.61-.87,0,0h0ZM246.87,263.86c-.21-.91.65-.04,0,0h0Z"/>
          <path class="cls-2" d="M77.24,256.23c-.05-.41.11-.4.34-.27-1.83-2.37-4.07-4.71-6.65-6.34,0,.02,0,.05,0,.07-.32.2-.49-.11-.48-.37-.29-.17-.6-.34-.9-.49-.86-.43-1.84-.33-2.58.29-2.76,2.28-9.65,8.07-10.26,12.99.04.04.04.09-.02.14-.08.84.02,1.65.36,2.42.12.27.28.5.47.7.26-.04.45.16.53.41.3.16.63.26.99.29.55.04,1.17.03,1.72-.09.38-.03.79-.1,1.21-.18-.15-.7.4-.25.22-.04.83-.17,1.69-.42,2.44-.65,2.53-.79,5.02-1.9,7.38-3.17v-.03h.05c.73-.39,1.45-.8,2.16-1.22.64-.38,1.34-.7,2.07-.86.6-.13,1.09-.46,1.42-.94.02-.11.06-.19.14-.23.06-.11.11-.22.15-.34.23-.63.19-1.27-.09-1.85-.21-.08-.31-.29-.66-.23ZM57.18,263.21c-.73.53.53-.73,0,0h0ZM58.49,262.12c.09.09-.14-.14,0,0h0ZM59.8,262.56c.09.09-.14-.14,0,0h0ZM60.02,261.9c.09.09-.14-.14,0,0h0ZM59.8,259.07c-.21-.91.65-.04,0,0h0ZM60.67,263.21c.09.09-.14-.14,0,0h0ZM60.67,264.74c-.21-.91.65-.04,0,0h0ZM61.98,258.2c.09.09-.14-.14,0,0h0ZM61.76,255.58c-.01-.38.17-.56.44-.66-.02.34.03.76-.44.66ZM62.2,262.12c.09.09-.14-.14,0,0h0ZM62.64,253.62c-.66-.74.81-.66,0,0h0ZM62.85,257.98c-.14-.14.09.09,0,0h0ZM62.42,259.72c.09.09-.14-.14,0,0h0ZM62.64,265.61c-.04-.28-.63-1.07-.22-1.09.36.23,1.09.85.22,1.09ZM63.51,254.05c-.28-.86.6-.57.87-.87.15.73-.37.8-.87.87ZM64.6,252.53h-.44v-.44h.44v.44ZM64.82,262.34c-.71-.68.77-.37,0,0h0ZM64.82,257.76c-.21-.91.65-.04,0,0h0ZM64.82,256.45c-.21-.9.65-.04,0,0h0ZM65.69,251.87c-.21-.91.65-.04,0,0h0ZM66.78,251c-.66.6.59-.66,0,0h0ZM67.21,259.94c.09.09-.14-.14,0,0h0ZM67.43,251c-.21-.91.65-.04,0,0h0ZM68.09,259.29c-.21-.91.65-.04,0,0h0ZM68.09,251.22c.06-.74.43-1.17.87-1.53-.01.3.1.48.22.65-1-.34-.4.91-1.09.87ZM68.96,262.77c-.24-1.16.66-.26,0,0h0ZM68.96,260.59c.09.09-.14-.14,0,0h0ZM68.96,254.71c-.21-.91.65-.04,0,0h0ZM70.27,254.92h.43v.44h-.43v-.44ZM69.61,257.98c.09.09-.14-.14,0,0h0ZM70.48,260.81c-.01-.38.17-.56.44-.65.01.38-.17.56-.44.65ZM71.36,261.47c-.24-1.16.66-.26,0,0h0ZM72.01,259.72c.09.09-.14-.14,0,0h0ZM72.67,256.89c-.71-.68.77-.37,0,0h0ZM73.1,254.49c.32-.82-.23-1.25.44-1.53.34.37.24,1.52-.44,1.53ZM74.41,255.36c-.66-.74.81-.66,0,0h0ZM75.06,257.98c.05.31.36.37.44.65-.45.19-.98-.57-.44-.65ZM75.5,257.98c-.06-.13-.54-.84,0-.87-.21.41.65.73,0,.87ZM75.94,259.07c-.21-.91.65-.04,0,0h0ZM75.94,256.67c-.21-.91.65-.04,0,0h0ZM77.24,258.63c.09.09-.14-.14,0,0h0ZM77.24,257.76c-.21-.91.65-.04,0,0h0Z"/>
        </g>
      </g>
      <g>
        <path class="cls-1" d="M212.31,228.87c0,.3.03.32.1.6-3.41.19-1.66,3.42-1.63,3.63-.75,0-.71-.06-1.23.22-.11.46-.1.81.28,1.11.67.53,2.46,1.69,3.1,1.69,2.59,0,.23-3.88.01-4.43,1.35-.2,2-1.07,1.53-2.23-.51-1.26-2.16-1.88-2.16-.59Z"/>
        <path class="cls-1" d="M61.74,254.41c.7.14,1.18-.4,1.68-1.06.66-.87,2.67-2.8,1.04-3.66-.75-.4-1.71-.22-2.33-.6,1.55-2.25-1.32-3.53-2.13-2.73-.44.44.1.99.31,1.46-.53.47-.86,1.88-.44,2.74.35.71,1.31.91,2.21,1.15-.18.79-.77,1.76-.35,2.7Z"/>
        <path class="cls-1" d="M39.1,196.73c.37,1.22,1.15,1.92,1.94,2.63.66.59.7.28,1.07,1.29.2.56.51,1.05,1.27.99,1.36-2.06.31-3.03-1.04-4.36l-.86-1.17c-.26-.46.19-3.43-3.1-1.15-.31.21-.98.65-.92,1.22.07.66.91.53,1.64.53Z"/>
        <path class="cls-1" d="M239.29,248.29c-.96-.44-2.1.17-1.46,1.21.22.36.56.47.88.8.32.32.34.61.66.9.7.65,1.7.23,1.96-.53.12-.37.2-.81.3-1.3.4-2.02.13-.84,1.34-1.88,2.02-1.75.86-2.58-.28-2.19-.46.16-.67.31-1.19.49-1.65.58-1.86.54-2.2,2.5Z"/>
        <path class="cls-1" d="M104.38,230.44c-.2.24-.47.46-.51.93-.17,1.81,4.25.56,2.55-2.18-1.31-2.11.45-2.83-.07-4.38-.29-.86-1.09-.83-1.56-.24-.34.43-.76,1.17-.98,1.71-.27.68-.38,1.47-.28,2.35.1.81.48,1.28.84,1.81Z"/>
        <path class="cls-1" d="M38.14,284.58h1.73c.53-.36,2.03-.66.74-3.02-1.28-2.33.14-2.24-.24-3.56-.21-.72-.76-.92-1.29-.33-.4.44-.33.19-.67.56-.91,1-.83,3.31-.07,4.4-.57.11-.88.23-1.1.71,0,1.02.32.82.89,1.23Z"/>
        <path class="cls-1" d="M260.1,191.91c-.07.72-.11.91.35,1.36-.73.57-1.45,1.34-1.37,2.46.08,1.06-.51,3.18,1.52,2.03,1.65-.94.19-1.78,1.18-2.39.32-.2.48-.27.83-.52,2.77-1.94-.77-4.1-2.5-2.95Z"/>
        <path class="cls-1" d="M22.94,230.87v1.13c.83.92-.05.17,1.2,1.15,2.28,1.79,1.41,4.3,2.97,3.89,1.2-.31,1.14-3.76-1.12-5.52-.22-.17-.52-.28-.71-.52l-.06-.17s-.02-.06-.03-.09c-.04-.13-.03-.15-.07-.27-.1-.29-.11-.29-.35-.42-.94-.37-1.42.37-1.83.81Z"/>
        <path class="cls-1" d="M171.6,220.89c-.96.45-1.46,2.35-1.77,3.51-.14.55-.19.4-.67.65-.24.13-.62.41-.71.64-.41,1,.71,1.15,1.4,1.16.8.02,1.59.3,2.11-.24.53-.56.27-1.28.37-2.1.07-.58,1.16-4.52-.72-3.62Z"/>
        <path class="cls-1" d="M90.43,174.51c0-.66.1-.36.1-.9,0-1.8-2.46-.95-3.28-.47-.73.44-.58,1.19.15,1.48.96.39.29.16,1.05,1.51.82,1.47.93,1.04,1.2,1.59.21.42-.08.17.28.39.89.53,1.94-.24,1.25-1.81-.2-.46-.75-1.3-.75-1.8Z"/>
        <path class="cls-1" d="M239.61,277.65c.26.7.61.61,1.04.71.3.07.15.04.25.08.15.07.19.14.43.22,3.01,1.06,5.34-4.25,3.37-4.25-.99,0-1.38,1.07-2.35,1.79-.58.43-.31.12-.9.12-.69,0-1.82-.09-1.85,1.33Z"/>
        <path class="cls-1" d="M282.52,232.61v-1.03c-.56-.33-.89-.63-1.82-.28-1.99.76-2.06,2.96-1.54,4.86.44,1.64,1.84,1.37,2.11-.27.12-.72.02-1.4.14-2.09.08-.45.82-.95,1.1-1.2Z"/>
        <path class="cls-1" d="M144.54,163.99h-1.23c-.68.49-.8.14-.8,1.34.24.5.32.27.5.67.11.51-.45,3.7,1.1,3.6.53-.03.69-.42.84-.88.35-1.08.81-2.83.44-3.89-.19-.56-.44-.48-.85-.84Z"/>
        <path class="cls-1" d="M214.61,178.4c1,0,1.02-.08,1.72-1.05.1-.14.14-.18.23-.32.61-.97.42-.4.95-.84.41-.34.58-1.17.28-1.73-.21-.38-.49-.44-.83-.61-.02-.01-.05-.03-.07-.04-.6-.3-.37-.26-1.3-.22-.2.3-.22.22-.32.6-.1.4.02.28-.18.69-.18.36-.45.75-.65,1.12-.28.52-.38.66-.44,1.37-.04.45-.03,1.03.62,1.03Z"/>
        <path class="cls-1" d="M268.53,280.67c.25,1.38.13,2.64,1.23,2.72,1.39.1,1.31-1.1,1.28-2.72-.08-3.48-2.19-3-2.4-1.78-.07.4-.19,1.34-.11,1.78Z"/>
        <path class="cls-1" d="M180.99,169.47v.89c0,.91.83,1.67,1.7,1.07.6-.41,1.59-3.93-.08-3.93-.72,0-.93,0-1.26.7-.12.26-.36.91-.36,1.26Z"/>
      </g>
    </g>
    <g>
      <path class="cls-1" d="M72.71,221.21c-1.19.19-3.02,3.06-3.65,3.96-.35.49-3.01,4.22-2.69,4.55.5.51,2.91-3.18,3.38-3.86.6-.87,2.85-3.83,2.96-4.65Z"/>
      <path class="cls-1" d="M231.83,221.21c-.12.74.86,1.74,1.32,2.42.62.9,4.34,6.68,4.91,6.09.34-.35-4.85-8.2-6.24-8.5Z"/>
      <path class="cls-1" d="M50.75,255.81c.8-.09,1.49-1.15,1.94-1.65.62-.68,1.24-1.23,1.85-1.92.6-.68,1.21-1.27,1.79-1.98.5-.6,1.44-1.37,1.56-2.31-.95.17-4.15,3.66-4.82,4.49-.65.81-2.3,2.34-2.32,3.36Z"/>
      <path class="cls-1" d="M257.89,248c.16-1.47-1.92-3.8-2.52-4.57-.72-.93-1.84-1.97-2.64-2.8-.32-.33-.45-.68-1.07-.61-.02.96,3.55,4.63,4.58,6.03.32.44.47.62.73,1.09.27.48.31.8.91.87Z"/>
      <path class="cls-1" d="M31.09,219.35c1.01-.05,2.48-2.91,2.95-3.8.46-.86,2.27-3.8,2.21-4.8-.7.11-1.07.89-1.59,1.79l-2.53,4.45c-.32.55-1.16,1.7-1.05,2.36Z"/>
      <path class="cls-1" d="M253.69,255.81c0-.95-2.3-3.47-3.12-4.23-.79-.73-2.87-3.39-3.92-3.63-.06.71.21.81.56,1.26.29.37.54.61.84.97l3.63,3.91c.47.5,1.18,1.63,2.01,1.72Z"/>
      <path class="cls-1" d="M49.02,252.91c.64-.14.67-.33.98-.73.29-.38.55-.73.8-1.02l3.23-3.75c.38-.44,1.48-1.41,1.38-2.12-1.07-.06-4.52,4.29-5.19,5.15-.45.59-1.26,1.54-1.2,2.47Z"/>
      <path class="cls-1" d="M256.91,249.69c.06-2.01-3.89-5.63-5.43-7.12-.34-.32-.44-.64-1.06-.63.04,1.09,3.43,4.33,4.74,5.89.46.55,1.1,1.73,1.75,1.86Z"/>
      <path class="cls-1" d="M47.53,249.69c.75-.15,1.69-1.97,2.5-2.78.94-.94,3.94-3.89,3.98-4.97-.6-.04-1.27.82-1.91,1.46-.64.64-1.2,1.17-1.82,1.81-.62.64-2.8,3.07-2.76,4.48Z"/>
      <path class="cls-1" d="M46.55,248c.74-.09.69-.67,1.58-1.88,1.16-1.58,2.78-3.31,4.11-4.97.24-.3.54-.65.53-1.14-.59-.09-1.17.69-1.93,1.43-1.25,1.22-4.48,4.97-4.3,6.56Z"/>
      <path class="cls-1" d="M273.36,219.35c.14-.73-1.83-3.72-2.26-4.5l-1.91-3.25c-.35-.56-.32-.7-.99-.85-.06,1.02,2.7,5.78,3.46,6.9.45.66.89,1.66,1.7,1.7Z"/>
      <path class="cls-1" d="M255.42,252.91c.09-1.34-3.14-4.87-4.35-6.16-.37-.39-1.32-1.47-2.04-1.46-.1.73,2.3,3.21,2.95,3.89.51.54,1.05,1.3,1.58,1.91.31.35.46.56.81,1.01.32.42.35.66,1.04.81Z"/>
      <path class="cls-1" d="M243.59,274.18c.25-1.41-4.42-7.4-5.46-7.52-.27.65.76,1.64,1.1,2.13,1.18,1.66,2.4,3,3.52,4.86.32.53.32.66.84.54Z"/>
      <path class="cls-1" d="M60.85,274.18c.67.16.67-.36,1.55-1.64.49-.72.9-1.25,1.42-1.94.73-.98,2.74-3.2,2.49-3.95-1.04.13-5.7,6.11-5.46,7.52Z"/>
      <path class="cls-1" d="M17.48,275.69c.81.26,4.48-3.83,5.16-4.52.52-.52,1.49-1.4,1.13-1.77-.36-.36-1.19.58-1.83,1.2-.89.86-4.7,4.29-4.45,5.09Z"/>
      <path class="cls-1" d="M47.77,251.43c.65-.13.73-.33,1.05-.72l1.57-1.78c.29-.33.47-.6.76-.92.68-.71,2.72-2.72,2.87-3.95-.94.24-2.8,2.53-3.51,3.32-.72.82-2.55,2.63-2.75,4.04Z"/>
      <path class="cls-1" d="M252.54,258.61c-.08-1.96-4.72-7.09-5.9-7.25-.09.68.33.99,1.2,1.98,1.32,1.5,1.8,1.93,3.06,3.64.39.52.95,1.72,1.63,1.64Z"/>
      <path class="cls-1" d="M256.68,251.43c-.25-1.79-5.37-7.09-6.14-7.36-.17,1.08,2.05,3.22,2.76,3.95.3.31.48.59.77.92l1.57,1.78c.32.39.4.59,1.05.72Z"/>
      <path class="cls-1" d="M281.87,271.24c.68.69,4.28,4.71,5.09,4.45.18-.58-.9-1.44-1.25-1.86-1.53-1.8-2.77-2.68-4.15-4.1-.72-.74-1.85-.7.31,1.51Z"/>
      <path class="cls-1" d="M51.9,258.61c.71.09,1.23-1.11,1.57-1.56.52-.69.95-1.24,1.47-1.88l2.34-2.69c.41-.43.53-.46.6-1.13-1.46.15-5.92,5.56-5.98,7.25Z"/>
      <path class="cls-1" d="M262.56,240.22c-.05-1.87-3.06-4.1-4.34-5.37-.46-.46-.98-1.34-1.71-1.48,0,.81.73,1.66,1.13,2.06l3.94,4.01c.29.38.44.65.97.77Z"/>
      <path class="cls-1" d="M64.3,273.72c.57,0,.6-.22.92-.74.85-1.38,4.1-5.95,4.07-6.79-.56.12-.68.27-.97.67l-2,2.61c-.54.78-1.94,3.12-2.02,4.25Z"/>
      <path class="cls-1" d="M121.49,178.26c.91-.13,2.72-2.28,3.32-3.03.6-.75,2.48-2.52,2.64-3.53-.88-.17-2.54,2.14-3.28,2.89-.73.75-2.58,2.68-2.68,3.68Z"/>
      <path class="cls-1" d="M182.96,178.26c-.09-.99-1.95-2.93-2.68-3.68-.58-.58-.78-.98-1.46-1.61-.4-.37-1.07-1.42-1.82-1.28.18,1.15,3.2,4.06,4.11,5.14.42.5.99,1.31,1.86,1.43Z"/>
      <path class="cls-1" d="M41.89,240.22c.49-.12.65-.34.92-.69,1.17-1.56,5.14-4.53,5.12-6.1-.52-.03-.61.17-.91.54-.31.37-.42.52-.79.88-.6.59-1.03,1-1.66,1.56-.6.53-1.05,1.07-1.58,1.63-.53.54-1.07,1.14-1.1,2.18Z"/>
      <path class="cls-1" d="M240.14,273.72c-.09-1.36-3.53-7.22-4.99-7.53-.1.81,1.83,3.29,2.28,3.97.42.62.85,1.27,1.26,1.96.6,1,.77,1.59,1.45,1.61Z"/>
      <path class="cls-1" d="M238.84,226.84c.14-.65-1.81-2.92-2.29-3.55l-1.97-2.5c-.27-.32-.35-.52-.93-.53,0,.95,1.64,2.92,2.23,3.71.58.78,2.14,3.09,2.97,2.87Z"/>
      <path class="cls-1" d="M68.49,230.27c.8.12,1.16-.68,1.59-1.28.56-.77,3.66-5.16,3.28-5.53-.5-.5-2.33,2.46-2.71,3.03-.45.67-2.13,3.14-2.16,3.79Z"/>
      <path class="cls-1" d="M235.95,230.27c-.04-.79-4.26-7.43-4.87-6.82-.42.41,3.16,5.37,3.88,6.33.26.35.41.57,1,.48Z"/>
      <path class="cls-1" d="M46.08,274.29c.58-.11.56-.21.87-.72l1.76-2.72c.48-.68,2.16-2.83,2.11-3.66-.56.03-.63.18-.91.54-1.15,1.5-3.87,4.69-3.84,6.55Z"/>
      <path class="cls-1" d="M255.15,268.51c-.67-.83-.82-1.28-1.53-1.32-.11.79,2.53,4.22,3.33,5.51.42.67.65,1.44,1.41,1.58.03-1.59-2.22-4.53-3.21-5.78Z"/>
      <path class="cls-1" d="M65.6,226.84c.82.22,2.38-2.1,2.97-2.87.51-.67,2.23-2.81,2.22-3.71-.6-.02-.58.13-.87.46l-3.29,4.25c-.4.54-1.17,1.26-1.04,1.87Z"/>
      <path class="cls-1" d="M68.16,271.59c.68-.12.96-.94,1.38-1.55.64-.93,3.76-4.96,3.05-5.3-.57-.28-4.74,5.68-4.43,6.85Z"/>
      <path class="cls-1" d="M30.62,217.12c.81-.3,4.06-6.02,3.92-7.34-.79.26-1.86,2.43-2.35,3.37-.35.67-1.97,3.25-1.57,3.97Z"/>
      <path class="cls-1" d="M233.71,268.31c.42.6.77,1.12,1.2,1.74.42.61.69,1.43,1.38,1.55.3-1.14-3.84-7.13-4.43-6.85-.69.33,1.58,3.17,1.86,3.56Z"/>
      <path class="cls-1" d="M273.82,217.12c.45-.81-1.96-4.65-2.58-5.73-.35-.61-.66-1.48-1.33-1.55-.15,1.17,3.09,6.97,3.92,7.28Z"/>
      <path class="cls-1" d="M243.31,269.6c-.56-.7-2.15-2.55-3.03-2.72-.05.78.71,1.37,1.1,1.85.98,1.2,1.67,1.96,2.54,3.32.36.57.61,1.35,1.26,1.49.27-1.12-1.38-3.31-1.88-3.94Z"/>
      <path class="cls-1" d="M59.25,273.54c.65-.14.82-.8,1.32-1.57.42-.64.79-1.13,1.22-1.71.88-1.2,2.38-2.44,2.36-3.38-.89.16-2.51,2.07-3.09,2.79-.47.59-2.08,2.76-1.82,3.86Z"/>
      <path class="cls-1" d="M35.93,228.78c.65-.22.46-.49,1-1.55.8-1.55,2.73-4.14,2.74-5.03-1.19.02-3.93,4.65-3.91,5.99,0,.59.09.48.16.59Z"/>
      <path class="cls-1" d="M268.51,228.78s.05-.13.05-.11c0,0,.55-.7-1.29-3.71-.43-.7-1.64-2.74-2.45-2.76-.13.8,1.25,2.54,1.73,3.34l1.31,2.46c.24.56.18.61.65.78Z"/>
      <path class="cls-1" d="M273.65,244.62c.18-.95-1.95-3.73-2.59-4.73-.2-.32-.73-1.5-1.16-1.08-.57.56,1.97,3.99,2.45,4.67.32.45.61,1.09,1.29,1.14Z"/>
      <path class="cls-1" d="M30.8,244.62c.93-.07,4.3-5.26,3.74-5.82-.43-.42-1.65,1.78-2.11,2.5-.38.6-1.79,2.51-1.63,3.32Z"/>
      <path class="cls-1" d="M37,218.33c-.76-.04-1.55,1.49-2.19,2.47-.26.39-1.84,2.64-1.39,3.07.42.4.93-.66,1.13-.96.65-.97,2.6-3.67,2.45-4.58Z"/>
      <path class="cls-1" d="M267.44,218.33c-.15.9,1.78,3.59,2.44,4.58,1.38,2.06,1.9,1.19-.26-2.11-.38-.58-1.39-2.46-2.18-2.47Z"/>
      <path class="cls-1" d="M28.81,239.26c.8,0,1.12-.6,1.75-1.65.47-.78,1.82-3.23,1.83-3.93-1.21-.13-3.55,5.2-3.58,5.58Z"/>
      <path class="cls-1" d="M49.97,253.64c.74-.11.94-.55,1.36-.97.89-.89,3.1-2.76,3.19-3.98-.89.04-2.08,1.5-2.59,2.06-.51.55-1.87,1.89-1.95,2.89Z"/>
      <path class="cls-1" d="M275.64,239.26c-.03-.36-2.36-5.7-3.59-5.58.02.82,1.64,3.64,2.24,4.52.45.65.49,1.07,1.35,1.07Z"/>
      <path class="cls-1" d="M254.47,253.64c-.09-1.18-3.48-4.9-4.55-4.95.07.9,1.28,2.15,1.92,2.74.93.86,1.84,2.09,2.63,2.21Z"/>
      <path class="cls-1" d="M34.67,226.8c.67-.07.73-.61,1.06-1.19.29-.52.51-.89.82-1.41.39-.67,1.43-2.13,1.42-2.95-1.12-.07-3.74,4.61-3.3,5.55Z"/>
      <path class="cls-1" d="M269.77,226.8c.44-.94-2.17-5.6-3.3-5.55,0,.87,1.63,3.27,2.24,4.36.32.58.39,1.12,1.06,1.19Z"/>
      <path class="cls-1" d="M43.75,241.88c.51.17,1.9-1.52,2.26-1.94.52-.61,1.88-1.69,1.92-2.67-.67,0-1.06.46-1.41.81-.83.84-3.18,2.95-2.77,3.8Z"/>
      <path class="cls-1" d="M30.76,214.19c.62-.09,1.34-1.59,1.85-2.45.26-.44,1.71-2.57,1.15-2.87-.52-.28-1.52,1.66-1.88,2.27-.3.51-1.53,2.39-1.11,3.04Z"/>
      <path class="cls-1" d="M231.09,266.04c-.76-1.39-1.1-2.46-1.87-2.17-.18.57.85,2.31,1.18,2.85.61,1.02,1.11,2.31,1.91,2.19.18-.76-.89-2.25-1.23-2.88Z"/>
      <path class="cls-1" d="M29.14,212.78c.83-.14,3.51-4.64,3.4-5.21-1.24.03-3.7,4.26-3.4,5.21Z"/>
      <path class="cls-1" d="M45.67,246.55c.5,0,1.32-1.31,2.05-2.11.79-.86,1.86-1.85,1.91-2.6-.95.02-1.49.87-2.51,1.86-.94.91-1.6,2.03-1.52,2.61,0,.04.03.09.03.12,0,.03.02.08.04.12Z"/>
      <path class="cls-1" d="M72.13,268.92c.63.09.83-.4,1.13-.88.53-.85,2.13-3.4,1.96-4.16-.68-.27-.76.2-1.11.83-.56,1.02-2.17,3.42-1.99,4.21Z"/>
      <path class="cls-1" d="M260.69,241.88l.05-.35c-.11-.77-3.22-4.24-4.16-4.25-.16.97,2.06,2.82,2.89,3.73.32.35.68,1.06,1.22.88Z"/>
      <path class="cls-1" d="M275.3,212.78c.29-.91-1.54-3.62-2.13-4.32-.34-.4-.6-.84-1.26-.88-.12.56,2.58,5.07,3.4,5.21Z"/>
      <path class="cls-1" d="M275.06,240.33c-.01-.76-1.98-2.97-2.52-3.73-.39-.55-.51-1.05-1.23-.98-.27.69,1,2.26,1.33,2.69.54.69,1.46,2.02,2.42,2.02Z"/>
      <path class="cls-1" d="M273.68,214.19c.49-.75-1.38-3.53-1.91-4.33-1.17-1.78-1.92-1.39.01,1.81.51.84,1.28,2.44,1.9,2.53Z"/>
      <path class="cls-1" d="M29.39,240.33c.9,0,1.73-1.15,2.36-1.95.37-.46,1.67-2.04,1.39-2.77-.71-.07-.8.38-1.17.9l-1.8,2.39c-.36.45-.77.76-.78,1.43Z"/>
      <path class="cls-1" d="M258.78,246.55c.06-.12.08-.1.09-.35,0-.3.03-.17-.08-.45-.41-1.13-1.91-2.43-2.52-3.08-.41-.45-.67-.81-1.45-.82.05.7.42,1,.79,1.35.55.51.61.68,1.05,1.18.42.48.63.69,1.03,1.2.24.31.57.98,1.08.98Z"/>
      <path class="cls-1" d="M70.97,230.99c.74-.11,1.46-1.43,1.93-2.13.3-.45,1.43-2.1,1.32-2.61,0,0-.22-.33-.66.04-.16.14-2.95,3.87-2.59,4.69Z"/>
      <path class="cls-1" d="M40.89,224.9c-.59-.07-.79.37-1.07.76-.45.62-2.57,3.41-2.2,3.78.42.43.86-.34,1.05-.6.32-.43.6-.76.9-1.19.35-.5,1.5-2.01,1.31-2.75Z"/>
      <path class="cls-1" d="M263.55,224.9c-.19.73.91,2.17,1.25,2.67.35.51,1.52,2.38,2.01,1.88.35-.36-1.05-2.13-1.28-2.46l-1.28-1.8c-.23-.25-.18-.34-.7-.28Z"/>
      <path class="cls-1" d="M230.22,226.25c-.11.51,2.27,4.59,3.25,4.74.32-.75-2.12-4.19-2.52-4.62-.38-.4-.33-.36-.73-.12Z"/>
      <path class="cls-1" d="M281.03,279.1c.18-1.19-1.87-2.84-2.62-3.56-.43-.41-.64-.71-1.23-.59-.03.71.4.95.77,1.34.18.19.26.32.46.51,1.41,1.27,1.87,2.34,2.62,2.3Z"/>
      <path class="cls-1" d="M23.41,279.1c.7.03.84-.45,1.16-.83.78-.91,3.11-2.79,2.58-3.3-.42-.4-3.93,2.85-3.74,4.13Z"/>
      <path class="cls-1" d="M259.3,243.84c.61-1.42-2.51-4.66-3.13-4.37-.44.21.29.97.4,1.09l1.73,2.18c.29.48.38,1,1,1.1Z"/>
      <path class="cls-1" d="M281.19,271.78c-.44-.41-.37-.66-1.11-.71-.08.87,1.1,2.02,1.53,2.39,1.12.98,1.53,1.54,2.3,1.57-.06-1.28-1.82-2.4-2.72-3.25Z"/>
      <path class="cls-1" d="M20.53,275.02c.83-.03.84-.31,1.31-.75.65-.61,2.59-1.9,2.52-3.21-.65.04-1.31.9-2.23,1.69-.54.45-1.55,1.29-1.59,2.27Z"/>
      <path class="cls-1" d="M45.14,243.84c.76-.13.74-.96,1.77-2.15.46-.53,1.9-1.96,1.37-2.21-.62-.3-3.75,2.95-3.14,4.37Z"/>
      <path class="cls-1" d="M33.81,237.07c-.67-.13-1.13.75-1.79,1.73l-1.13,1.69c-.16.31-.27.46-.02.69.45.44,1.57-1.31,1.77-1.62.36-.55,1.35-1.74,1.16-2.5Z"/>
      <path class="cls-1" d="M270.63,237.02c-.2,1,2.4,4.7,2.93,4.17.4-.39-.52-1.43-1.09-2.3-.69-1.06-1.12-1.89-1.84-1.87Z"/>
      <path class="cls-1" d="M266.02,232.67c.22-1.45-.66-2.4-1.6-3.46-.36-.41-.33-.62-.87-.68-.5.9,1.01,2.06,1.59,3.17.33.63.16.88.88.97Z"/>
      <path class="cls-1" d="M38.43,232.67c.83-.11.35-.36,1.56-1.96.41-.55,1.3-1.46.91-2.17-.35.05-2.77,2.14-2.46,4.14Z"/>
      <path class="cls-1" d="M125.6,176.49c.62.07,1.2-.61,2.01-1.41.53-.52,1.28-1.2,1.37-2.25-.6.08-3.37,2.61-3.37,3.66Z"/>
      <path class="cls-1" d="M178.85,176.49c0-1.05-2.77-3.59-3.37-3.66.1,1.06.83,1.72,1.37,2.25.34.33.57.46.89.79.36.38.46.69,1.12.62Z"/>
      <path class="cls-1" d="M267.85,213.93s-.06.04-.06.11c-.02.18-.31.17.14,1.07.23.46,1.48,2.99,2.01,2.48.01-.01.04-.05.05-.07.17-.29,0-.61-.24-1.03-.26-.48-1.49-2.87-1.9-2.55Z"/>
      <path class="cls-1" d="M35.42,241.41c-.89.17-.38.36-1.25,1.92-.21.37-1.24,1.68-.7,1.95.43.21,2.42-1.97,1.94-3.87Z"/>
      <path class="cls-1" d="M269.02,241.41c-.48,1.9,1.51,4.08,1.95,3.87.63-.31-.74-1.73-1.18-2.99-.22-.64-.09-.74-.76-.87Z"/>
      <path class="cls-1" d="M36.51,213.91c-.63.27-1.01,1.15-1.36,1.77-.18.33-1.37,2.08-.4,1.96.65-.08,2.78-4.16,1.76-3.73Z"/>
      <path class="cls-1" d="M275.61,279.14c.04-1.06-1.86-3.15-2.73-3.24-.22.8.66,1.55,1.09,1.98.45.46.85,1.28,1.64,1.25Z"/>
      <path class="cls-1" d="M28.83,279.14c.82.02,2.78-2.24,2.83-3.24-1.12.08-2.87,2.28-2.83,3.24Z"/>
      <path class="cls-1" d="M34.82,247.01c.76,0,.48-.17,1.2-1.41.31-.54.86-1.33.7-2.01-1.08-.06-2.15,2.62-1.91,3.42Z"/>
      <path class="cls-1" d="M269.62,247.01c.25-.8-.84-3.47-1.91-3.42-.19.8.68,1.87,1.14,2.83.24.51.16.58.77.59Z"/>
      <path class="cls-1" d="M282.1,275.9c-.83-.96-.93-1.27-1.52-1.11-.2.62.59,1.45.93,1.83.64.7.94,1.21,1.57,1.06.16-.58-.63-1.36-.99-1.78Z"/>
      <path class="cls-1" d="M42.26,234.6c-.48.21-1.1.99-1.41,1.44-.16.25-1.23,1.68-.22,1.49.61-.11,3-3.55,1.63-2.94Z"/>
      <path class="cls-1" d="M21.35,277.68c.82.21,2.66-2.06,2.51-2.92-.55-.09-.67.18-.92.49-.53.64-1.78,1.71-1.58,2.44Z"/>
      <path class="cls-1" d="M262.01,234.62c-.14.13-.27-.23-.14.49.06.35,1.16,1.74,1.45,2.06.52.57.68.49.87.28.36-.4-1.76-3.19-2.17-2.82Z"/>
      <path class="cls-1" d="M50.59,211.29c-.56-.02-.53.03-.78.48-.27.48-1.25,2.39-.7,2.67.64.32,1.8-2.51,1.48-3.14Z"/>
      <path class="cls-1" d="M253.86,211.29c-.72,1.42,2.89,5.61,1.18,1.33-.13-.31-.24-.56-.4-.86-.25-.45-.21-.5-.78-.48Z"/>
      <path class="cls-1" d="M26.02,278.64c.53.12,2.8-2,2.38-2.42-.41-.4-1.92,1.04-2.26,1.52-.64.9-.12.89-.11.9Z"/>
      <path class="cls-1" d="M263.07,232.56c-.34.33,1.29,3.27,1.81,2.74.47-.47-.64-1.94-1.01-2.47-.11-.15-.21-.36-.41-.39l-.29.07s-.07.03-.1.06Z"/>
      <path class="cls-1" d="M276.05,276.22c-.43.42,1.85,2.54,2.38,2.42.08-.12.29.24.1-.54-.12-.48-2.03-2.32-2.48-1.88Z"/>
      <path class="cls-1" d="M41.37,232.4c-.55,0-.55.07-.8.43-.18.25-.32.47-.5.75-1.14,1.75-.62,2.74.73.59.37-.58.78-1.11.57-1.77Z"/>
      <path class="cls-1" d="M244.83,270.31c.59,1.09.5,1.32,1.18,1.27.27-.89-.77-2.98-1.58-2.95-.37.51.1,1.14.4,1.69Z"/>
      <path class="cls-1" d="M58.43,271.57c.56.04.55-.08.75-.45.16-.31.27-.51.44-.82.33-.6.76-1.15.4-1.69-.81-.02-1.85,2.06-1.58,2.95Z"/>
      <path class="cls-1" d="M250.36,259.18c.1-1.1-1.35-3.11-1.81-2.65-.32.33.35,1.21.55,1.55.33.58.53,1.14,1.26,1.09Z"/>
      <path class="cls-1" d="M54.09,259.18c.73.04.93-.52,1.26-1.09.2-.34.87-1.22.54-1.55-.46-.46-1.9,1.54-1.8,2.65Z"/>
      <path class="cls-1" d="M95.5,178.67c.61-.04.44-.06.73-.48.47-.7,1.15-1.33,1.07-2.15-.48-.05-.42,0-.7.29-.78.78-1.37,1.08-1.09,2.35Z"/>
      <path class="cls-1" d="M208.94,178.67c.29-1.31-.35-1.57-1.03-2.27-.29-.3-.25-.42-.77-.36-.08.83.6,1.46,1.07,2.15.29.42.12.44.73.48Z"/>
      <path class="cls-1" d="M98.37,179.42c.94.14,1.97-1.71,1.86-2.42-.75-.17-.87.31-1.26.85-.31.42-.71.89-.59,1.57Z"/>
      <path class="cls-1" d="M206.07,179.42c.11-.64-.85-2.65-1.86-2.42-.11.71.92,2.56,1.86,2.42Z"/>
      <path class="cls-1" d="M174.51,176.48c.01,1.52,1.62,2.64,2,2.26.41-.41-.39-.94-.67-1.25-.4-.45-.53-.95-1.33-1.01Z"/>
      <path class="cls-1" d="M129.94,176.48c-.79.06-.94.56-1.33,1.01-.28.32-1.09.84-.67,1.25.38.38,1.99-.74,2-2.26Z"/>
      <path class="cls-1" d="M266.25,245.63c-.16.51.26.91.55,1.31.41.58.41,1.08,1.1,1.01.33-1.27-.96-2.33-1.26-2.39-.65-.12-.22-.02-.39.06Z"/>
      <path class="cls-1" d="M36.55,247.96c.69.07.62-.32,1.04-.93.28-.4.77-.87.61-1.4-.12-.06-.03-.09-.29-.07-.5.04-1.66,1.2-1.36,2.4Z"/>
      <path class="cls-1" d="M228.73,234.6c.25-.47-.08-.97-.29-1.37-.29-.54-.45-.9-1.1-.84-.24.55.27,1.47.67,1.96.33.4,0,.35.72.24Z"/>
      <path class="cls-1" d="M228.61,265.73c.32-.97-.56-2.78-1.19-2.41-.39.23.2,1.36.5,1.99.21.45.12.42.7.43Z"/>
      <path class="cls-1" d="M75.72,234.6c.59.09.42.32,1.09-.85.31-.55.54-.81.31-1.35-.95-.11-1.69,1.67-1.4,2.21Z"/>
      <path class="cls-1" d="M75.84,265.73c.75,0,.6-.25.94-1.03.16-.38.68-1.14.26-1.39-.64-.37-1.52,1.44-1.2,2.41Z"/>
      <path class="cls-1" d="M100.01,221.77c-.67-.05-.73.33-1,.95-.18.4-.55,1.24-.06,1.47.52.24,1.37-1.79,1.06-2.42Z"/>
      <path class="cls-1" d="M204.43,221.77c-.31.63.54,2.67,1.06,2.42.49-.23.12-1.07-.06-1.47-.27-.62-.33-1-1-.95Z"/>
      <path class="cls-1" d="M48.48,209.6c-1.28.92-.72,4.1.44,1,.17-.45.19-1.45-.44-1Z"/>
      <path class="cls-1" d="M50.78,215.85c.76.11.75-.18,1-.72.18-.37.66-1.03.35-1.36-.7-.74-1.51,1.36-1.35,2.07Z"/>
      <path class="cls-1" d="M255.58,209.62s-.28,0-.17.65c0,.06.24.64.29.73.17.39.47,1.2.96.73.35-.34-.03-.96-.21-1.34-.18-.4-.41-1.14-.86-.77Z"/>
      <path class="cls-1" d="M253.66,215.85c.16-.71-.64-2.81-1.35-2.07-.29.31.14.92.31,1.26.27.57.24.92,1.04.81Z"/>
      <path class="cls-1" d="M49.02,273.58c.61,0,.79-.26,1.15-.71.28-.35.61-.75.37-1.34-.82-.03-1.74,1.3-1.53,2.05Z"/>
      <path class="cls-1" d="M254.27,272.87c.36.45.54.7,1.15.71.21-.75-.7-2.08-1.53-2.05-.24.57.11,1.01.37,1.34Z"/>
      <path class="cls-1" d="M171.14,177.86c-.19.8.87,1.7,1.79,1.76.06-.8-.17-.95-.59-1.3-.27-.23-.76-.66-1.2-.46Z"/>
      <path class="cls-1" d="M131.51,179.63c.92-.07,1.97-.96,1.79-1.76-.55-.11-.85.16-1.2.46-.42.36-.65.51-.59,1.3Z"/>
      <path class="cls-1" d="M272.7,277.3c-.35.16-.28.06-.48.29.01.18.45,1.68,1.54,1.51.17-.8-.58-1.51-1.06-1.8Z"/>
      <path class="cls-1" d="M30.68,279.1c.77.12.84-.24,1.16-.69.34-.48.62-.68.04-1.11-.58.19-1.38.97-1.2,1.8Z"/>
      <path class="cls-1" d="M40.44,254.54c.58.09.65-.09.87-.59.21-.51.26-.72.19-1.29-.96-.16-1.28,1.16-1.05,1.88Z"/>
      <path class="cls-1" d="M264.01,254.54c.22-.72-.09-2.04-1.05-1.88-.08.58-.03.79.19,1.29.21.49.28.68.87.59Z"/>
      <path class="cls-1" d="M29.87,234.33l-.06-.44c-.69-.03-.63.04-.89.56-.15.29-.48.78-.32,1.07.43.75,1.35-.62,1.27-1.19Z"/>
      <path class="cls-1" d="M274.58,234.19c0,1.63,1.52,1.97,1.27.92,0,0-.26-.52-.28-.57-.28-.55-.21-.69-.94-.65-.04.15-.06.18-.06.3Z"/>
      <path class="cls-1" d="M251.37,220.7c.81-1.46-1.6-3.1-.77-.54.17.53.24.72.77.54Z"/>
      <path class="cls-1" d="M46.69,277.1c.48-.72-.42-1.33-1.33.05-.26.4-.29.98.42.73.01,0,.87-.72.91-.78Z"/>
      <path class="cls-1" d="M53.07,220.7c1.02.34.91-1.5.84-1.84-.59-.09-.86.13-.97,1.1-.02.19-.04.2,0,.4.08.52.04.17.13.34Z"/>
      <path class="cls-1" d="M257.66,276.78c.04.47,1.92,2.03,1.57.65-.13-.52-1.68-1.87-1.57-.65Z"/>
      <path class="cls-1" d="M258.07,267.54c-.12-.17-.5-.86-.86-.52-.48.46.35,1.89,1.3,1.56.2-.6-.04-.51-.44-1.04Z"/>
      <path class="cls-1" d="M45.93,268.58c.95.33,1.77-1.1,1.29-1.56-.36-.34-.73.35-.86.52-.39.53-.64.44-.44,1.04Z"/>
      <path class="cls-1" d="M39.5,252.83c.51.14.56.02.8-.44,1.03-1.98-1.05-1.42-.92.09.06.66-.03.07.12.35Z"/>
      <path class="cls-1" d="M206.39,221.48c.52-.58.19-2.06-.78-1.89-.07.37-.08,1.79.78,1.89Z"/>
      <path class="cls-1" d="M98.05,221.48c.86-.11.86-1.53.78-1.89-.98-.17-1.31,1.31-.78,1.89Z"/>
      <path class="cls-1" d="M270.87,278.76c0-.7-1.41-1.92-1.35-.72.03.6,1.34,1.93,1.35.72Z"/>
      <path class="cls-1" d="M264.94,252.83c.2-.39.13-.69-.09-1.15-.52-1.09-1.34-.62-.76.61.24.5.31.68.85.54Z"/>
      <path class="cls-1" d="M237.51,222.2c-.18.7.62,1.9,1.19,1.58.43-.24.04-.69-.14-.95-.35-.5-.29-.7-1.05-.63Z"/>
      <path class="cls-1" d="M66.93,222.2c-.71-.07-.7.12-.99.55-.2.29-.66.78-.2,1.03.57.32,1.36-.88,1.19-1.58Z"/>
      <path class="cls-1" d="M10.66,234.69v.6l.55.13c.55-.49.78-1.05.58-1.78-.8.02-.64.44-1.13,1.05Z"/>
      <path class="cls-1" d="M293.78,235.3v-.6c-.5-.62-.32-1.03-1.13-1.05-.21.73.03,1.3.58,1.77l.55-.11Z"/>
      <path class="cls-1" d="M261.92,258.02c.36-.33.32-.48.06-1.09-.24-.54-.31-.78-.95-.62-.14.75.17,1.62.89,1.71Z"/>
      <path class="cls-1" d="M42.52,258.02c.69-.08,1.04-.93.89-1.71-.6-.16-.75.14-.95.62-.27.61-.29.76.06,1.09Z"/>
      <path class="cls-1" d="M34.82,278.32c.45-.95-.66-1.07-1.16.13-.41.99.58,1.1,1.16-.13Z"/>
      <path class="cls-1" d="M36.21,259.63c.58.03.89-.2.97-1.03.14-1.5-1.6-.14-.97,1.03Z"/>
      <path class="cls-1" d="M267.37,258.03s-.04.05-.05.11c0,.09-.24.08.06.92.18.51.25.61.85.58.29-.54.02-1.94-.86-1.6Z"/>
      <path class="cls-1" d="M12.33,236.57c.96-.04,1.4-1.09,1.13-1.66-.96-.12-1.25,1.08-1.13,1.66Z"/>
      <path class="cls-1" d="M292.12,236.57c.13-.59-.16-1.78-1.13-1.66-.27.58.17,1.62,1.13,1.66Z"/>
      <path class="cls-1" d="M274.52,261.14c-.26.55.22,1.68,1.18,1.46.05-.5-.17-1.7-1.18-1.46Z"/>
      <path class="cls-1" d="M28.75,262.6c.55.13.71-.03.97-.41.26-.38.42-.6.21-1.05-.78-.33-1.25.81-1.18,1.46Z"/>
      <path class="cls-1" d="M33.09,220c.86.1,1.11-.63,1.18-1.36-.42-.16-.57-.33-.91.13-.23.31-.43.75-.27,1.23Z"/>
      <path class="cls-1" d="M266.16,251.13c.07-.83-.57-1.94-1.12-1.43-.3.28-.03.63.16.93.26.42.29.53.96.5Z"/>
      <path class="cls-1" d="M38.29,251.13c.67.03.69-.08.96-.5.19-.3.45-.65.16-.93-.53-.52-1.19.61-1.12,1.43Z"/>
      <path class="cls-1" d="M270.18,218.63c.07.75.33,1.47,1.18,1.37.26-.79-.36-1.1-.47-1.56l-.71.19Z"/>
      <path class="cls-1" d="M51.74,218.52c1.05.17.99-1.12.66-1.62-.9-.06-.83.91-.66,1.62Z"/>
      <path class="cls-1" d="M182.28,173.8l.11-.23c.11-.75-.43-1.33-1.26-1.24-.05.72.53,1.59,1.16,1.48Z"/>
      <path class="cls-1" d="M284.47,276.11c-.09.38.75,1.46,1.46.94-.04-.5-.2-.69-.54-.96-.3-.24-.79-.49-.92.02Z"/>
      <path class="cls-1" d="M18.51,277.05c.71.52,1.55-.56,1.46-.94-.13-.51-.62-.26-.92-.02-.33.27-.49.46-.53.96Z"/>
      <path class="cls-1" d="M252.7,218.52c.12-.51.07-2.25-.67-1.56-.23.22-.47,1.74.67,1.56Z"/>
      <path class="cls-1" d="M261.47,276.43c-.3-.37-.33-.49-.91-.47-.26.81.52,1.69,1.04,1.42.48-.25.03-.76-.13-.95Z"/>
      <path class="cls-1" d="M43.88,275.96c-.59-.03-.66.13-.97.54-.16.21-.5.65-.07.88.54.28,1.28-.6,1.04-1.42Z"/>
      <path class="cls-1" d="M122.16,173.8c.63.11,1.21-.75,1.16-1.48-.51-.06-.79.09-1.03.38l-.26.75c.06.55.04.19.13.36Z"/>
      <path class="cls-1" d="M269.21,279.71h.5c.86-1.46-2.44-2.15-.5,0Z"/>
      <path class="cls-1" d="M37.42,262.57c1.06.19,1.12-1.1.91-1.33-.68-.76-1.03.74-.91,1.33Z"/>
      <path class="cls-1" d="M267.02,262.57c.12-.6-.23-2.09-.91-1.33-.21.23-.15,1.53.91,1.33Z"/>
      <path class="cls-1" d="M34.73,279.71h.5c1-1.11.53-1.63-.05-1.33,0,0-.35.37-.35.37-.29.38-.41.52-.09.96Z"/>
      <path class="cls-1" d="M50.24,231.05c-.73-.08-1.4.97-.96,1.38.47.44,1.24-.54.96-1.38Z"/>
      <path class="cls-1" d="M254.2,231.05c-.28.84.49,1.81.96,1.38.44-.41-.23-1.46-.96-1.38Z"/>
      <path class="cls-1" d="M37.41,249.44l.68.14c.22-.42.99-1.23.22-1.43-.54-.14-.92.7-.9,1.29Z"/>
      <path class="cls-1" d="M266.35,249.56l.7-.2c.02-.52-.4-1.33-.89-1.21-.8.2-.03,1,.19,1.41Z"/>
      <path class="cls-1" d="M281.53,251.37c0,.4.1.7.19,1,.74.02.91-.35.68-1.07-.18-.56-.22-.42-.8-.37-.05.17-.08.21-.08.43Z"/>
      <path class="cls-1" d="M290.07,237.47c.23-.62-.23-1.83-.79-1.34-.3.26-.17,1.72.79,1.34Z"/>
      <path class="cls-1" d="M14.37,237.47c.96.38,1.09-1.08.79-1.34-.56-.49-1.02.73-.79,1.34Z"/>
      <path class="cls-1" d="M22.07,252.22l.65.15c.18-.55.26-.86.12-1.43l-.66-.05c-.12.61-.32.71-.11,1.34Z"/>
      <path class="cls-1" d="M208.44,175.49l-.07.22s-.24.02.28.66c1.08,1.36,1.35-1.33-.2-.88Z"/>
      <path class="cls-1" d="M95,176.67c.39.14.49.05.73-.22,0,0,.29-.42.3-.43.09-.25.01.35.05-.2.04-.61.03-.08-.08-.32-.69-.2-1.39.43-1,1.17Z"/>
      <path class="cls-1" d="M31.98,264.11c.35.09.61.08.88-.17.34-.31.35-.51.18-.9-.72-.32-1.2.4-1.06,1.06Z"/>
      <path class="cls-1" d="M123.89,178.62c.67.47,1.18-.05,1.2-.8-.07-.05-.2-.18-.28-.24-.58.03-.95.4-.92,1.05Z"/>
      <path class="cls-1" d="M271.4,263.05c-.24.65-.19-.16-.09.47.06.35.48.78,1.15.6.14-.69-.32-1.34-1.06-1.06Z"/>
      <path class="cls-1" d="M247.39,254.82c.15-.7-.29-.99-.79-1.15-.35.24-.54.36-.22.84.33.48.63.49,1.01.31Z"/>
      <path class="cls-1" d="M180.56,178.62c.03-.64-.33-1.02-.92-1.05-.68.65.16,1.58.92,1.05Z"/>
      <path class="cls-1" d="M57.05,254.82c.61.3,1.07-.11,1.16-.79-.22-.32-.02-.11-.36-.35-.51.16-.95.45-.8,1.15Z"/>
      <path class="cls-1" d="M259.7,258.72s-.44.36.06.99c.23.28.47.3.83.22.11-.62-.23-1.35-.89-1.2Z"/>
      <path class="cls-1" d="M23.28,253.62c.2-.46.42-.74.17-1.22l-.36-.11c-.38.24-1.23,1.31.19,1.33Z"/>
      <path class="cls-1" d="M281.16,253.62c1.25,0,.75-.98.19-1.32l-.37.1c-.25.49-.03.76.17,1.23Z"/>
      <path class="cls-1" d="M246.77,269.98c.29-.15.32-.56.18-.95-.16-.47-.29-.39-.78-.34-.17.54.03,1.6.6,1.29Z"/>
      <path class="cls-1" d="M58.27,268.69c-.52-.06-.69-.1-.81.45-.09.4-.06.69.21.84.58.31.77-.75.6-1.29Z"/>
      <path class="cls-1" d="M261.97,254.61c-.14.68.27,1.65.83,1.11.23-.22.13-.59-.01-.85-.21-.37-.33-.39-.82-.26Z"/>
      <path class="cls-1" d="M43.85,259.93c.83.19,1.07-.52,1.03-.87-.03-.26-.06-.21-.14-.34-.67-.15-1.01.58-.89,1.2Z"/>
      <path class="cls-1" d="M42.52,254.72c-.81-.53-1.11.41-.98.81.2.64,1.02.32.98-.81Z"/>
      <path class="cls-1" d="M45.5,261.34c.66.14.76-.07.75-.76,0-.6-.17-.44-.73-.44-.15.43-.26.81-.02,1.2Z"/>
      <path class="cls-1" d="M258.19,260.44c0,.75.01,1.04.75.9.24-.39.13-.77-.02-1.2-.37,0-.73-.12-.73.3Z"/>
      <path class="cls-1" d="M21.31,250.91c1.16.07,1.08-.88.52-1.25-.28.11-.3,0-.49.38-.2.4-.13.49-.03.86Z"/>
      <path class="cls-1" d="M18.03,243.55l.71.05c.25-.52.16-.7.05-1.18h-.71s-.06,1.13-.06,1.13Z"/>
      <path class="cls-1" d="M283.14,250.91c.17-.7.03-1.05-.52-1.25-.69.44-.44,1.26.52,1.25Z"/>
      <path class="cls-1" d="M285.7,243.55l.67.04.03-1.13-.75-.07c-.11.51-.2.69.05,1.16Z"/>
      <path class="cls-1" d="M229.37,231.23c-.13.64.12,1.19.79.93.16-.28.12.34.13-.34,0-.16-.02-.32-.12-.46-.16-.23-.56-.28-.81-.13Z"/>
      <path class="cls-1" d="M74.28,232.16c.66.26.91-.34.79-.93-.09-.02-.87-.34-.93.46-.05.72.06.33.13.47Z"/>
      <path class="cls-1" d="M45,267.29c.1-.11.46-.32.44-.71-.02-.31-.18-.48-.54-.4-.44.1-.81.94.11,1.12Z"/>
      <path class="cls-1" d="M204.15,224.66c-.56,1.22,1.62,1.61.59-.09l-.59.09Z"/>
      <path class="cls-1" d="M259.44,267.29c1.01-.27.46-1.04.11-1.12-.85-.18-.59.74-.11,1.12Z"/>
      <path class="cls-1" d="M100.29,224.71l-.57-.17c-1.03,1.73,1.14,1.34.57.17Z"/>
      <path class="cls-1" d="M55.87,200.74c.68.3,1.19.03.92-.81-.62-.33-.87.03-.92.81Z"/>
      <path class="cls-1" d="M287.05,241.34s.25.33.61.01c.1-.18.16.29.12-.44,0-.09-.09-.37-.12-.45l-.7.02c-.13.56-.16.43.08.86Z"/>
      <path class="cls-1" d="M16.79,241.36c.68.29.86-.12.69-.85l-.69-.08c-.02.1-.12.41-.12.48,0,.69.03.27.13.44Z"/>
      <path class="cls-1" d="M31.05,262.95c.11-.15.34-.35.24-.66-.07-.24-.33-.38-.63-.27-.36.14-.64.84.38.93Z"/>
      <path class="cls-1" d="M273.39,262.95c.87-.08.83-.38.46-.96-.95.05-.87.34-.46.96Z"/>
      <path class="cls-1" d="M42.26,223.24l-.62-.22c-.9.99.53,1.64.62.22Z"/>
      <path class="cls-1" d="M262.19,223.23c.07,1.42,1.53.8.63-.18l-.63.18Z"/>
      <path class="cls-1" d="M74.06,267.83c.43.16.27.2.75.08.19-.41.14-.1.11-.64-.61-.17-.89-.24-.86.56Z"/>
      <path class="cls-1" d="M229.63,267.91c.48.12.32.07.75-.08.01-.8-.24-.73-.86-.56-.04.53-.08.25.11.64Z"/>
      <path class="cls-1" d="M274.58,246c.35.1.99.2.78-.48-.14-.46-1.02-.44-.78.48Z"/>
      <path class="cls-1" d="M29.18,245.98c.43.19.19.17.68.03.29-1.07-1.13-1-.68-.03Z"/>
    </g>
  </g>
  <text class="cls-3" transform="translate(127.28 248.57)"><tspan x="0" y="0">ES</tspan><tspan class="cls-5" x="11.83" y="0">T</tspan><tspan x="16.14" y="0">. 2024</tspan></text>
  <text class="cls-4" transform="translate(89.51 215.27) rotate(-16.92)"><tspan x="0" y="0">F</tspan></text>
  <text class="cls-4" transform="translate(104.67 210.65) rotate(-10.96)"><tspan x="0" y="0">E</tspan></text>
  <text class="cls-4" transform="translate(120.55 207.5) rotate(-5.34)"><tspan x="0" y="0">A</tspan></text>
  <text class="cls-4" transform="translate(139.47 205.67) rotate(.46)"><tspan x="0" y="0">S</tspan></text>
  <text class="cls-4" transform="translate(157.93 205.82) rotate(4.87)"><tspan x="0" y="0">T</tspan></text>
  <text class="cls-4" transform="translate(172.41 207.13) rotate(8.51)"><tspan x="0" y="0">I</tspan></text>
  <text class="cls-4" transform="translate(181.23 208.3) rotate(12.72)"><tspan x="0" y="0">F</tspan></text>
  <text class="cls-4" transform="translate(196.67 211.71) rotate(19.03)"><tspan x="0" y="0">Y</tspan></text>
</svg>