<svg xmlns="http://www.w3.org/2000/svg" xmlns:xlink="http://www.w3.org/1999/xlink" viewBox="0 0 48 48" width="48px" height="48px"><defs><linearGradient id="TT60yVBEdtm3nNxGL1Zawh" x1="23" x2="24" y1="6.5" y2="6.5" xlink:href="#TT60yVBEdtm3nNxGL1Zawa"/><linearGradient id="TT60yVBEdtm3nNxGL1Zawa" x1="27" x2="38" y1="-1547.5" y2="-1547.5" gradientTransform="matrix(1 0 0 -1 0 -1516)" gradientUnits="userSpaceOnUse"><stop offset="0" stop-color="#3079d6"/><stop offset="1" stop-color="#297cd2"/></linearGradient><linearGradient id="TT60yVBEdtm3nNxGL1Zawd" x1="27" x2="38" y1="-1556" y2="-1556" gradientTransform="matrix(1 0 0 -1 0 -1516)" gradientUnits="userSpaceOnUse"><stop offset="0" stop-color="#1d59b3"/><stop offset="1" stop-color="#195bbc"/></linearGradient><linearGradient id="TT60yVBEdtm3nNxGL1Zawn" x1="16" x2="16" y1="30.829" y2="29.497" data-name="Безымянный градиент 113" xlink:href="#TT60yVBEdtm3nNxGL1Zawb"/><linearGradient id="TT60yVBEdtm3nNxGL1Zawe" x1="22" x2="23" y1="13.5" y2="13.5" xlink:href="#TT60yVBEdtm3nNxGL1Zawa"/><linearGradient id="TT60yVBEdtm3nNxGL1Zawf" x1="21" x2="22" y1="6.5" y2="6.5" xlink:href="#TT60yVBEdtm3nNxGL1Zawa"/><linearGradient id="TT60yVBEdtm3nNxGL1Zawg" x1="22" x2="23" y1="6.5" y2="6.5" xlink:href="#TT60yVBEdtm3nNxGL1Zawa"/><linearGradient id="TT60yVBEdtm3nNxGL1Zawc" x1="9" x2="23" y1="30" y2="30" xlink:href="#TT60yVBEdtm3nNxGL1Zawa"/><linearGradient id="TT60yVBEdtm3nNxGL1Zawi" x1="21" x2="24" y1="8.25" y2="8.25" xlink:href="#TT60yVBEdtm3nNxGL1Zawa"/><linearGradient id="TT60yVBEdtm3nNxGL1Zawj" x1="22" x2="23" y1="11.5" y2="11.5" xlink:href="#TT60yVBEdtm3nNxGL1Zawa"/><linearGradient id="TT60yVBEdtm3nNxGL1Zawk" x1="25" x2="26" y1="13.5" y2="13.5" xlink:href="#TT60yVBEdtm3nNxGL1Zawa"/><linearGradient id="TT60yVBEdtm3nNxGL1Zawl" x1="25" x2="26" y1="11.5" y2="11.5" xlink:href="#TT60yVBEdtm3nNxGL1Zawa"/><linearGradient id="TT60yVBEdtm3nNxGL1Zawm" x1="25" x2="27.5" y1="8.5" y2="8.5" xlink:href="#TT60yVBEdtm3nNxGL1Zawa"/><linearGradient id="TT60yVBEdtm3nNxGL1Zawo" x1="16" x2="16" y1="32.81" y2="23.676" data-name="Безымянный градиент 110" gradientUnits="userSpaceOnUse"><stop offset="0" stop-color="#fed100"/><stop offset="1" stop-color="#e38101"/></linearGradient><radialGradient id="TT60yVBEdtm3nNxGL1Zawb" cx="24" cy="10" r="11.348" gradientUnits="userSpaceOnUse"><stop offset="0" stop-color="#ffd869"/><stop offset="1" stop-color="#fec52b"/></radialGradient></defs><path fill="#ccc" d="M5,19H43V38H5Z"/><path fill="#999" d="M5,38H43v2a1.99945,1.99945,0,0,1-2,2H7a1.99945,1.99945,0,0,1-2-2Z"/><path fill="url(#TT60yVBEdtm3nNxGL1Zawa)" d="M27,25H38V38H27Z"/><rect width="14" height="10" x="9" y="25" fill="url(#TT60yVBEdtm3nNxGL1Zawc)"/><path fill="#bf2336" d="M42,16H6L3,19v1a1.99945,1.99945,0,0,0,2,2H43a1.99945,1.99945,0,0,0,2-2V19Z"/><path fill="#c94f60" d="M45,19H3l1.83-8.22A.99565.99565,0,0,1,5.8,10H42.2a.99565.99565,0,0,1,.97.78Z"/><rect width="11" height="4" x="27" y="38" fill="url(#TT60yVBEdtm3nNxGL1Zawd)"/><path fill="#343434" d="M21,35H11a1.148,1.148,0,0,1,1.25-1h7.5A1.148,1.148,0,0,1,21,35Z"/><circle cx="24" cy="10" r="7" fill="url(#TT60yVBEdtm3nNxGL1Zawb)"/><circle cx="22.5" cy="13.5" r=".5" fill="url(#TT60yVBEdtm3nNxGL1Zawe)"/><circle cx="21.5" cy="6.5" r=".5" fill="url(#TT60yVBEdtm3nNxGL1Zawf)"/><circle cx="22.5" cy="6.5" r=".5" fill="url(#TT60yVBEdtm3nNxGL1Zawg)"/><circle cx="23.5" cy="6.5" r=".5" fill="url(#TT60yVBEdtm3nNxGL1Zawh)"/><path fill="url(#TT60yVBEdtm3nNxGL1Zawi)" d="M21,6.5h3a0,0,0,0,1,0,0v2A1.5,1.5,0,0,1,22.5,10h0A1.5,1.5,0,0,1,21,8.5v-2a0,0,0,0,1,0,0Z"/><rect width="1" height="4" x="22" y="9.5" fill="url(#TT60yVBEdtm3nNxGL1Zawj)"/><circle cx="25.5" cy="13.5" r=".5" fill="url(#TT60yVBEdtm3nNxGL1Zawk)"/><rect width="1" height="4" x="25" y="9.5" fill="url(#TT60yVBEdtm3nNxGL1Zawl)"/><path fill="url(#TT60yVBEdtm3nNxGL1Zawm)" d="M25,6v5h2.5C27.5,10,27,6.5,25,6Z"/><g><path d="M31,10a7,7,0,0,1-14,0H16a8,8,0,0,0,16,0Z" opacity=".05"/><path d="M31,10a7,7,0,0,1-14,0h-.5a7.5,7.5,0,0,0,15,0Z" opacity=".07"/></g><rect width="1" height="3" x="15.5" y="25" fill="#343434"/><circle cx="16" cy="29.5" r="1.5" fill="url(#TT60yVBEdtm3nNxGL1Zawn)"/><path fill="url(#TT60yVBEdtm3nNxGL1Zawo)" d="M16,27a3,3,0,0,0-3,3h6A3,3,0,0,0,16,27Z"/></svg>