<svg xmlns="http://www.w3.org/2000/svg"  viewBox="0 0 48 48" width="48px" height="48px"><defs><linearGradient id="U0YIbGZHUdQctyzaK50hYa" x1="24" x2="24" y1="6.821" y2="41.179" gradientUnits="userSpaceOnUse"><stop offset="0" stop-color="#f85e55"/><stop offset="1" stop-color="#d41414"/></linearGradient></defs><path fill="url(#U0YIbGZHUdQctyzaK50hYa)" d="M36.144,41.179a1.492,1.492,0,0,1-1.061-.44L24,29.656,12.917,40.739a1.5,1.5,0,0,1-2.121,0L7.261,37.2a1.5,1.5,0,0,1,0-2.121L18.344,24,7.261,12.917a1.5,1.5,0,0,1,0-2.121L10.8,7.261a1.5,1.5,0,0,1,2.121,0L24,18.344,35.083,7.261a1.5,1.5,0,0,1,2.121,0L40.739,10.8a1.5,1.5,0,0,1,0,2.121L29.656,24,40.739,35.083a1.5,1.5,0,0,1,0,2.121L37.2,40.739A1.491,1.491,0,0,1,36.144,41.179Z" data-name="check cross mark"/></svg>